<mxfile host="app.diagrams.net" modified="2023-01-11T12:36:13.976Z" agent="5.0 (Windows)" etag="d36CYYE9rvxAxFGvgMZQ" version="20.5.3" type="github">
  <diagram id="a45cf8ec-cd66-6f27-3ac3-be6e809c9e4a" name="Page-1">
    <mxGraphModel dx="1884" dy="1184" grid="1" gridSize="10" guides="1" tooltips="1" connect="1" arrows="1" fold="1" page="1" pageScale="1" pageWidth="827" pageHeight="1169" background="none" math="1" shadow="0">
      <root>
        <mxCell id="0" />
        <mxCell id="1" parent="0" />
        <mxCell id="-l9Mk85zTir52LxoKMyz-278" value="" style="rounded=1;whiteSpace=wrap;html=1;strokeColor=default;fontSize=13;fontColor=#000000;fillColor=#FFFFFF;gradientColor=none;fontStyle=2;dashed=1;" vertex="1" parent="1">
          <mxGeometry x="2169.9799999999996" y="630" width="233.3" height="410" as="geometry" />
        </mxCell>
        <mxCell id="-l9Mk85zTir52LxoKMyz-266" value="" style="rounded=1;whiteSpace=wrap;html=1;fontSize=13;fontStyle=2;dashed=1;" vertex="1" parent="1">
          <mxGeometry x="1561.63" y="630" width="572" height="407.5" as="geometry" />
        </mxCell>
        <mxCell id="-l9Mk85zTir52LxoKMyz-371" value="" style="rounded=1;whiteSpace=wrap;html=1;dashed=1;sketch=0;fontSize=13;strokeColor=#FF0000;" vertex="1" parent="1">
          <mxGeometry x="1615.8200000000002" y="842.4300000000001" width="161.61" height="187.57" as="geometry" />
        </mxCell>
        <mxCell id="-l9Mk85zTir52LxoKMyz-288" value="" style="shape=partialRectangle;html=1;whiteSpace=wrap;connectable=0;overflow=hidden;fillColor=#009900;top=0;left=0;bottom=0;right=0;pointerEvents=1;rounded=1;strokeColor=default;fontFamily=Helvetica;fontSize=12;fontColor=default;fontStyle=2" vertex="1" parent="1">
          <mxGeometry x="2316.9900000000002" y="693.8900000000001" width="19" height="15" as="geometry">
            <mxRectangle width="19" height="15" as="alternateBounds" />
          </mxGeometry>
        </mxCell>
        <mxCell id="-l9Mk85zTir52LxoKMyz-289" value="" style="shape=partialRectangle;html=1;whiteSpace=wrap;connectable=0;overflow=hidden;fillColor=#003300;top=0;left=0;bottom=0;right=0;pointerEvents=1;rounded=1;strokeColor=default;fontFamily=Helvetica;fontSize=12;fontColor=default;fontStyle=2" vertex="1" parent="1">
          <mxGeometry x="2335.9900000000002" y="693.8900000000001" width="18" height="15" as="geometry">
            <mxRectangle width="18" height="15" as="alternateBounds" />
          </mxGeometry>
        </mxCell>
        <mxCell id="-l9Mk85zTir52LxoKMyz-297" value="" style="shape=partialRectangle;html=1;whiteSpace=wrap;connectable=0;overflow=hidden;fillColor=#009900;top=0;left=0;bottom=0;right=0;pointerEvents=1;rounded=1;strokeColor=default;fontFamily=Helvetica;fontSize=12;fontColor=default;fontStyle=2" vertex="1" parent="1">
          <mxGeometry x="2279.9900000000002" y="693.8900000000001" width="19" height="15" as="geometry">
            <mxRectangle width="19" height="15" as="alternateBounds" />
          </mxGeometry>
        </mxCell>
        <mxCell id="-l9Mk85zTir52LxoKMyz-298" value="" style="shape=partialRectangle;html=1;whiteSpace=wrap;connectable=0;overflow=hidden;fillColor=#003300;top=0;left=0;bottom=0;right=0;pointerEvents=1;rounded=1;strokeColor=default;fontFamily=Helvetica;fontSize=12;fontColor=default;fontStyle=2" vertex="1" parent="1">
          <mxGeometry x="2298.9900000000002" y="693.8900000000001" width="18" height="15" as="geometry">
            <mxRectangle width="18" height="15" as="alternateBounds" />
          </mxGeometry>
        </mxCell>
        <mxCell id="-l9Mk85zTir52LxoKMyz-263" value="" style="rounded=1;whiteSpace=wrap;html=1;strokeColor=#FF0000;fontFamily=Helvetica;fontSize=12;fillColor=#FFFFFF;fontStyle=2;dashed=1;" vertex="1" parent="1">
          <mxGeometry x="1713.7000000000003" y="680" width="249.93" height="120" as="geometry" />
        </mxCell>
        <mxCell id="-l9Mk85zTir52LxoKMyz-358" value="" style="shape=partialRectangle;html=1;whiteSpace=wrap;connectable=0;overflow=hidden;fillColor=#00FF00;top=0;left=0;bottom=0;right=0;pointerEvents=1;rounded=1;strokeColor=default;fontFamily=Helvetica;fontSize=12;fontColor=default;fontStyle=2" vertex="1" parent="1">
          <mxGeometry x="2329.9900000000002" y="701.3900000000001" width="18" height="13.8" as="geometry">
            <mxRectangle width="18" height="15" as="alternateBounds" />
          </mxGeometry>
        </mxCell>
        <mxCell id="-l9Mk85zTir52LxoKMyz-286" value="" style="shape=partialRectangle;html=1;whiteSpace=wrap;connectable=0;overflow=hidden;fillColor=#006600;top=0;left=0;bottom=0;right=0;pointerEvents=1;rounded=1;strokeColor=default;fontFamily=Helvetica;fontSize=12;fontColor=default;fontStyle=2" vertex="1" parent="1">
          <mxGeometry x="2310.9900000000007" y="701.3900000000001" width="19" height="13" as="geometry">
            <mxRectangle width="19" height="13" as="alternateBounds" />
          </mxGeometry>
        </mxCell>
        <mxCell id="-l9Mk85zTir52LxoKMyz-295" value="" style="shape=partialRectangle;html=1;whiteSpace=wrap;connectable=0;overflow=hidden;fillColor=#003300;top=0;left=0;bottom=0;right=0;pointerEvents=1;rounded=1;strokeColor=default;fontFamily=Helvetica;fontSize=12;fontColor=default;fontStyle=2" vertex="1" parent="1">
          <mxGeometry x="2273.9900000000007" y="701.3900000000001" width="19" height="13" as="geometry">
            <mxRectangle width="19" height="13" as="alternateBounds" />
          </mxGeometry>
        </mxCell>
        <mxCell id="-l9Mk85zTir52LxoKMyz-296" value="" style="shape=partialRectangle;html=1;whiteSpace=wrap;connectable=0;overflow=hidden;fillColor=#00CC66;top=0;left=0;bottom=0;right=0;pointerEvents=1;rounded=1;strokeColor=default;fontFamily=Helvetica;fontSize=12;fontColor=default;fontStyle=2" vertex="1" parent="1">
          <mxGeometry x="2292.9900000000007" y="701.3900000000001" width="18" height="13" as="geometry">
            <mxRectangle width="18" height="13" as="alternateBounds" />
          </mxGeometry>
        </mxCell>
        <mxCell id="-l9Mk85zTir52LxoKMyz-353" value="" style="shape=partialRectangle;html=1;whiteSpace=wrap;connectable=0;overflow=hidden;fillColor=#006633;top=0;left=0;bottom=0;right=0;pointerEvents=1;rounded=1;strokeColor=default;fontFamily=Helvetica;fontSize=12;fontColor=default;fontStyle=2" vertex="1" parent="1">
          <mxGeometry x="1388.0500000000002" y="722.0699999999999" width="19" height="15" as="geometry">
            <mxRectangle width="19" height="15" as="alternateBounds" />
          </mxGeometry>
        </mxCell>
        <mxCell id="-l9Mk85zTir52LxoKMyz-354" value="" style="shape=partialRectangle;html=1;whiteSpace=wrap;connectable=0;overflow=hidden;fillColor=#009900;top=0;left=0;bottom=0;right=0;pointerEvents=1;rounded=1;strokeColor=default;fontFamily=Helvetica;fontSize=12;fontColor=default;fontStyle=2" vertex="1" parent="1">
          <mxGeometry x="1406.7000000000003" y="722.0699999999999" width="18" height="15" as="geometry">
            <mxRectangle width="18" height="15" as="alternateBounds" />
          </mxGeometry>
        </mxCell>
        <mxCell id="-l9Mk85zTir52LxoKMyz-355" value="" style="shape=partialRectangle;html=1;whiteSpace=wrap;connectable=0;overflow=hidden;fillColor=#003300;top=0;left=0;bottom=0;right=0;pointerEvents=1;rounded=1;strokeColor=default;fontFamily=Helvetica;fontSize=12;fontColor=default;fontStyle=2" vertex="1" parent="1">
          <mxGeometry x="1351.92" y="722.0699999999999" width="19" height="15" as="geometry">
            <mxRectangle width="19" height="15" as="alternateBounds" />
          </mxGeometry>
        </mxCell>
        <mxCell id="-l9Mk85zTir52LxoKMyz-356" value="" style="shape=partialRectangle;html=1;whiteSpace=wrap;connectable=0;overflow=hidden;fillColor=#00CC66;top=0;left=0;bottom=0;right=0;pointerEvents=1;rounded=1;strokeColor=default;fontFamily=Helvetica;fontSize=12;fontColor=default;fontStyle=2" vertex="1" parent="1">
          <mxGeometry x="1370.92" y="722.0699999999999" width="18" height="15" as="geometry">
            <mxRectangle width="18" height="15" as="alternateBounds" />
          </mxGeometry>
        </mxCell>
        <mxCell id="-l9Mk85zTir52LxoKMyz-349" value="" style="shape=partialRectangle;html=1;whiteSpace=wrap;connectable=0;overflow=hidden;fillColor=#003300;top=0;left=0;bottom=0;right=0;pointerEvents=1;rounded=1;strokeColor=default;fontFamily=Helvetica;fontSize=12;fontColor=default;fontStyle=2" vertex="1" parent="1">
          <mxGeometry x="1382.46" y="727.7000000000003" width="19" height="15" as="geometry">
            <mxRectangle width="19" height="15" as="alternateBounds" />
          </mxGeometry>
        </mxCell>
        <mxCell id="-l9Mk85zTir52LxoKMyz-350" value="" style="shape=partialRectangle;html=1;whiteSpace=wrap;connectable=0;overflow=hidden;fillColor=#006633;top=0;left=0;bottom=0;right=0;pointerEvents=1;rounded=1;strokeColor=default;fontFamily=Helvetica;fontSize=12;fontColor=default;fontStyle=2" vertex="1" parent="1">
          <mxGeometry x="1401.1100000000001" y="727.7000000000003" width="18" height="15" as="geometry">
            <mxRectangle width="18" height="15" as="alternateBounds" />
          </mxGeometry>
        </mxCell>
        <mxCell id="-l9Mk85zTir52LxoKMyz-351" value="" style="shape=partialRectangle;html=1;whiteSpace=wrap;connectable=0;overflow=hidden;fillColor=#009900;top=0;left=0;bottom=0;right=0;pointerEvents=1;rounded=1;strokeColor=default;fontFamily=Helvetica;fontSize=12;fontColor=default;fontStyle=2;gradientColor=none;" vertex="1" parent="1">
          <mxGeometry x="1346.3300000000004" y="727.7000000000003" width="19" height="15" as="geometry">
            <mxRectangle width="19" height="15" as="alternateBounds" />
          </mxGeometry>
        </mxCell>
        <mxCell id="-l9Mk85zTir52LxoKMyz-352" value="" style="shape=partialRectangle;html=1;whiteSpace=wrap;connectable=0;overflow=hidden;fillColor=#336600;top=0;left=0;bottom=0;right=0;pointerEvents=1;rounded=1;strokeColor=default;fontFamily=Helvetica;fontSize=12;fontColor=default;fontStyle=2" vertex="1" parent="1">
          <mxGeometry x="1365.3300000000004" y="727.7000000000003" width="18" height="15" as="geometry">
            <mxRectangle width="18" height="15" as="alternateBounds" />
          </mxGeometry>
        </mxCell>
        <mxCell id="-l9Mk85zTir52LxoKMyz-345" value="" style="shape=partialRectangle;html=1;whiteSpace=wrap;connectable=0;overflow=hidden;fillColor=#00994D;top=0;left=0;bottom=0;right=0;pointerEvents=1;rounded=1;strokeColor=default;fontFamily=Helvetica;fontSize=12;fontColor=default;fontStyle=2" vertex="1" parent="1">
          <mxGeometry x="1376.81" y="733.9500000000003" width="19" height="15" as="geometry">
            <mxRectangle width="19" height="15" as="alternateBounds" />
          </mxGeometry>
        </mxCell>
        <mxCell id="-l9Mk85zTir52LxoKMyz-346" value="" style="shape=partialRectangle;html=1;whiteSpace=wrap;connectable=0;overflow=hidden;fillColor=#00CC00;top=0;left=0;bottom=0;right=0;pointerEvents=1;rounded=1;strokeColor=default;fontFamily=Helvetica;fontSize=12;fontColor=default;fontStyle=2" vertex="1" parent="1">
          <mxGeometry x="1395.46" y="733.9500000000003" width="18" height="15" as="geometry">
            <mxRectangle width="18" height="15" as="alternateBounds" />
          </mxGeometry>
        </mxCell>
        <mxCell id="-l9Mk85zTir52LxoKMyz-347" value="" style="shape=partialRectangle;html=1;whiteSpace=wrap;connectable=0;overflow=hidden;fillColor=#006600;top=0;left=0;bottom=0;right=0;pointerEvents=1;rounded=1;strokeColor=default;fontFamily=Helvetica;fontSize=12;fontColor=default;fontStyle=2" vertex="1" parent="1">
          <mxGeometry x="1340.6800000000003" y="733.9500000000003" width="19" height="15" as="geometry">
            <mxRectangle width="19" height="15" as="alternateBounds" />
          </mxGeometry>
        </mxCell>
        <mxCell id="-l9Mk85zTir52LxoKMyz-348" value="" style="shape=partialRectangle;html=1;whiteSpace=wrap;connectable=0;overflow=hidden;fillColor=#00CC00;top=0;left=0;bottom=0;right=0;pointerEvents=1;rounded=1;strokeColor=default;fontFamily=Helvetica;fontSize=12;fontColor=default;fontStyle=2" vertex="1" parent="1">
          <mxGeometry x="1359.6800000000003" y="733.9500000000003" width="18" height="15" as="geometry">
            <mxRectangle width="18" height="15" as="alternateBounds" />
          </mxGeometry>
        </mxCell>
        <mxCell id="-l9Mk85zTir52LxoKMyz-212" value="" style="shape=partialRectangle;html=1;whiteSpace=wrap;connectable=0;overflow=hidden;top=0;left=0;bottom=0;right=0;pointerEvents=1;rounded=1;fontFamily=Helvetica;fontSize=12;fillColor=#00331A;fontStyle=2" vertex="1" parent="1">
          <mxGeometry x="1387.3900000000003" y="920.94" width="19" height="15" as="geometry">
            <mxRectangle width="19" height="15" as="alternateBounds" />
          </mxGeometry>
        </mxCell>
        <mxCell id="-l9Mk85zTir52LxoKMyz-213" value="" style="shape=partialRectangle;html=1;whiteSpace=wrap;connectable=0;overflow=hidden;fillColor=#009900;top=0;left=0;bottom=0;right=0;pointerEvents=1;rounded=1;strokeColor=default;fontFamily=Helvetica;fontSize=12;fontColor=default;fontStyle=2" vertex="1" parent="1">
          <mxGeometry x="1405.3900000000003" y="920.94" width="18" height="15" as="geometry">
            <mxRectangle width="18" height="15" as="alternateBounds" />
          </mxGeometry>
        </mxCell>
        <mxCell id="-l9Mk85zTir52LxoKMyz-241" value="" style="shape=partialRectangle;html=1;whiteSpace=wrap;connectable=0;overflow=hidden;top=0;left=0;bottom=0;right=0;pointerEvents=1;rounded=1;fontFamily=Helvetica;fontSize=12;fillColor=#00CC00;fontStyle=2" vertex="1" parent="1">
          <mxGeometry x="1350.3900000000003" y="920.94" width="19" height="15" as="geometry">
            <mxRectangle width="19" height="15" as="alternateBounds" />
          </mxGeometry>
        </mxCell>
        <mxCell id="-l9Mk85zTir52LxoKMyz-242" value="" style="shape=partialRectangle;html=1;whiteSpace=wrap;connectable=0;overflow=hidden;fillColor=#006600;top=0;left=0;bottom=0;right=0;pointerEvents=1;rounded=1;strokeColor=default;fontFamily=Helvetica;fontSize=12;fontColor=default;fontStyle=2" vertex="1" parent="1">
          <mxGeometry x="1369.3900000000003" y="920.94" width="18" height="15" as="geometry">
            <mxRectangle width="18" height="15" as="alternateBounds" />
          </mxGeometry>
        </mxCell>
        <mxCell id="-l9Mk85zTir52LxoKMyz-331" value="" style="shape=partialRectangle;html=1;whiteSpace=wrap;connectable=0;overflow=hidden;fillColor=#006600;top=0;left=0;bottom=0;right=0;pointerEvents=1;rounded=1;strokeColor=default;fontFamily=Helvetica;fontSize=12;fontColor=default;fontStyle=2" vertex="1" parent="1">
          <mxGeometry x="1380.87" y="927.69" width="19" height="15" as="geometry">
            <mxRectangle width="19" height="15" as="alternateBounds" />
          </mxGeometry>
        </mxCell>
        <mxCell id="-l9Mk85zTir52LxoKMyz-332" value="" style="shape=partialRectangle;html=1;whiteSpace=wrap;connectable=0;overflow=hidden;fillColor=#00CC66;top=0;left=0;bottom=0;right=0;pointerEvents=1;rounded=1;strokeColor=default;fontFamily=Helvetica;fontSize=12;fontColor=default;fontStyle=2" vertex="1" parent="1">
          <mxGeometry x="1399.52" y="927.69" width="18" height="15" as="geometry">
            <mxRectangle width="18" height="15" as="alternateBounds" />
          </mxGeometry>
        </mxCell>
        <mxCell id="-l9Mk85zTir52LxoKMyz-333" value="" style="shape=partialRectangle;html=1;whiteSpace=wrap;connectable=0;overflow=hidden;fillColor=#003300;top=0;left=0;bottom=0;right=0;pointerEvents=1;rounded=1;strokeColor=default;fontFamily=Helvetica;fontSize=12;fontColor=default;fontStyle=2" vertex="1" parent="1">
          <mxGeometry x="1343.7400000000002" y="927.69" width="19" height="15" as="geometry">
            <mxRectangle width="19" height="15" as="alternateBounds" />
          </mxGeometry>
        </mxCell>
        <mxCell id="-l9Mk85zTir52LxoKMyz-334" value="" style="shape=partialRectangle;html=1;whiteSpace=wrap;connectable=0;overflow=hidden;fillColor=#009900;top=0;left=0;bottom=0;right=0;pointerEvents=1;rounded=1;strokeColor=default;fontFamily=Helvetica;fontSize=12;fontColor=default;fontStyle=2" vertex="1" parent="1">
          <mxGeometry x="1362.7400000000002" y="927.69" width="18" height="15" as="geometry">
            <mxRectangle width="18" height="15" as="alternateBounds" />
          </mxGeometry>
        </mxCell>
        <mxCell id="-l9Mk85zTir52LxoKMyz-21" value="" style="ellipse;whiteSpace=wrap;html=1;aspect=fixed;fontSize=72;fontColor=#1A1A1A;" vertex="1" parent="1">
          <mxGeometry x="NaN" y="NaN" width="NaN" height="2.75" as="geometry" />
        </mxCell>
        <mxCell id="-l9Mk85zTir52LxoKMyz-260" style="edgeStyle=orthogonalEdgeStyle;rounded=0;jumpSize=16;orthogonalLoop=1;jettySize=auto;html=1;entryX=0.5;entryY=1;entryDx=0;entryDy=0;fontSize=13;fontColor=#000000;startArrow=none;startFill=0;endArrow=classic;endFill=1;startSize=16;endSize=8;fontStyle=2" edge="1" parent="1" source="-l9Mk85zTir52LxoKMyz-162" target="-l9Mk85zTir52LxoKMyz-259">
          <mxGeometry relative="1" as="geometry">
            <mxPoint x="2279.08" y="978.3100000000002" as="targetPoint" />
            <Array as="points">
              <mxPoint x="2297.63" y="987" />
            </Array>
          </mxGeometry>
        </mxCell>
        <mxCell id="-l9Mk85zTir52LxoKMyz-162" value="" style="ellipse;whiteSpace=wrap;html=1;aspect=fixed;labelBorderColor=none;fillColor=#d5e8d4;strokeColor=#82b366;fontStyle=2;sketch=0;" vertex="1" parent="1">
          <mxGeometry x="2242.6800000000003" y="827.1300000000003" width="123.5" height="123.5" as="geometry" />
        </mxCell>
        <mxCell id="-l9Mk85zTir52LxoKMyz-163" value="" style="ellipse;whiteSpace=wrap;html=1;aspect=fixed;labelBorderColor=none;gradientDirection=south;fillColor=#fff2cc;strokeColor=#d6b656;fontStyle=2" vertex="1" parent="1">
          <mxGeometry x="2252.9300000000003" y="891.7300000000002" width="41.4" height="41.4" as="geometry" />
        </mxCell>
        <mxCell id="-l9Mk85zTir52LxoKMyz-310" style="edgeStyle=orthogonalEdgeStyle;rounded=0;jumpSize=16;orthogonalLoop=1;jettySize=auto;html=1;fontSize=15;fontColor=#000000;startArrow=none;startFill=0;endArrow=classic;endFill=1;startSize=16;endSize=8;strokeWidth=2;" edge="1" parent="1" source="-l9Mk85zTir52LxoKMyz-169" target="-l9Mk85zTir52LxoKMyz-172">
          <mxGeometry relative="1" as="geometry">
            <Array as="points">
              <mxPoint x="1923.63" y="939" />
              <mxPoint x="1923.63" y="939" />
            </Array>
          </mxGeometry>
        </mxCell>
        <mxCell id="-l9Mk85zTir52LxoKMyz-169" value="" style="rounded=0;whiteSpace=wrap;html=1;fontStyle=2" vertex="1" parent="1">
          <mxGeometry x="1936.0900000000001" y="924.75" width="50" height="30" as="geometry" />
        </mxCell>
        <mxCell id="-l9Mk85zTir52LxoKMyz-170" value="$$fusion$$" style="text;html=1;align=center;verticalAlign=middle;resizable=0;points=[];autosize=1;strokeColor=none;fillColor=none;fontSize=12;fontFamily=Helvetica;fontColor=default;fontStyle=2" vertex="1" parent="1">
          <mxGeometry x="1921.0900000000006" y="923.94" width="80" height="30" as="geometry" />
        </mxCell>
        <mxCell id="-l9Mk85zTir52LxoKMyz-309" style="edgeStyle=orthogonalEdgeStyle;rounded=0;jumpSize=16;orthogonalLoop=1;jettySize=auto;html=1;entryX=1;entryY=0.5;entryDx=0;entryDy=0;fontSize=15;fontColor=#000000;startArrow=none;startFill=0;endArrow=classic;endFill=1;startSize=16;endSize=8;strokeWidth=2;" edge="1" parent="1" source="-l9Mk85zTir52LxoKMyz-178" target="-l9Mk85zTir52LxoKMyz-169">
          <mxGeometry relative="1" as="geometry">
            <Array as="points">
              <mxPoint x="2078.63" y="940" />
            </Array>
          </mxGeometry>
        </mxCell>
        <mxCell id="-l9Mk85zTir52LxoKMyz-183" value="&lt;font style=&quot;font-size: 12px;&quot;&gt;$$Cells$$&lt;/font&gt;" style="text;html=1;align=center;verticalAlign=middle;resizable=0;points=[];autosize=1;strokeColor=none;fillColor=none;fontSize=10;fontFamily=Helvetica;fontColor=default;horizontal=0;fontStyle=2;rotation=90;" vertex="1" parent="1">
          <mxGeometry x="1351.92" y="733.9499999999996" width="40" height="70" as="geometry" />
        </mxCell>
        <mxCell id="-l9Mk85zTir52LxoKMyz-185" value="&lt;font style=&quot;font-size: 9px;&quot;&gt;$$class\_1$$&lt;/font&gt;" style="text;html=1;align=center;verticalAlign=middle;resizable=0;points=[];autosize=1;strokeColor=none;fillColor=none;fontSize=14;fontFamily=Helvetica;fontColor=default;fontStyle=2" vertex="1" parent="1">
          <mxGeometry x="2233.63" y="897.1199999999999" width="80" height="30" as="geometry" />
        </mxCell>
        <mxCell id="-l9Mk85zTir52LxoKMyz-189" value="$$×T$$" style="text;html=1;align=center;verticalAlign=middle;resizable=0;points=[];autosize=1;strokeColor=none;fillColor=none;fontStyle=2" vertex="1" parent="1">
          <mxGeometry x="1878.7600000000007" y="840.1199999999999" width="60" height="30" as="geometry" />
        </mxCell>
        <mxCell id="-l9Mk85zTir52LxoKMyz-216" value="" style="shape=partialRectangle;html=1;whiteSpace=wrap;connectable=0;overflow=hidden;fillColor=#00CC00;top=0;left=0;bottom=0;right=0;pointerEvents=1;rounded=1;strokeColor=default;fontFamily=Helvetica;fontSize=12;fontColor=default;fontStyle=2" vertex="1" parent="1">
          <mxGeometry x="1372.13" y="935.75" width="19" height="15" as="geometry">
            <mxRectangle width="19" height="15" as="alternateBounds" />
          </mxGeometry>
        </mxCell>
        <mxCell id="-l9Mk85zTir52LxoKMyz-217" value="" style="shape=partialRectangle;html=1;whiteSpace=wrap;connectable=0;overflow=hidden;fillColor=#003300;top=0;left=0;bottom=0;right=0;pointerEvents=1;rounded=1;strokeColor=default;fontFamily=Helvetica;fontSize=12;fontColor=default;fontStyle=2" vertex="1" parent="1">
          <mxGeometry x="1390.7800000000002" y="935.75" width="18" height="15" as="geometry">
            <mxRectangle width="18" height="15" as="alternateBounds" />
          </mxGeometry>
        </mxCell>
        <mxCell id="-l9Mk85zTir52LxoKMyz-222" value="" style="ellipse;whiteSpace=wrap;html=1;aspect=fixed;labelBorderColor=none;gradientDirection=south;fillColor=#f5f5f5;fontColor=#333333;strokeColor=#666666;fontStyle=2" vertex="1" parent="1">
          <mxGeometry x="2300.41" y="893.1300000000003" width="40.5" height="40.5" as="geometry" />
        </mxCell>
        <mxCell id="-l9Mk85zTir52LxoKMyz-223" value="&lt;font style=&quot;font-size: 9px;&quot;&gt;$$class\_2$$&lt;/font&gt;" style="text;html=1;align=center;verticalAlign=middle;resizable=0;points=[];autosize=1;strokeColor=none;fillColor=none;fontSize=14;fontFamily=Helvetica;fontColor=default;fontStyle=2" vertex="1" parent="1">
          <mxGeometry x="2280.8099999999995" y="897.1200000000001" width="80" height="30" as="geometry" />
        </mxCell>
        <mxCell id="-l9Mk85zTir52LxoKMyz-224" value="" style="ellipse;whiteSpace=wrap;html=1;aspect=fixed;labelBorderColor=none;gradientDirection=south;fillColor=#ffe6cc;strokeColor=#d79b00;fontStyle=2" vertex="1" parent="1">
          <mxGeometry x="2255.21" y="843.1300000000003" width="42.5" height="42.5" as="geometry" />
        </mxCell>
        <mxCell id="-l9Mk85zTir52LxoKMyz-225" value="&lt;font style=&quot;font-size: 9px;&quot;&gt;$$class\_K$$&lt;/font&gt;" style="text;html=1;align=center;verticalAlign=middle;resizable=0;points=[];autosize=1;strokeColor=none;fillColor=none;fontSize=14;fontFamily=Helvetica;fontColor=default;fontStyle=2" vertex="1" parent="1">
          <mxGeometry x="2236.46" y="850.0000000000002" width="80" height="30" as="geometry" />
        </mxCell>
        <mxCell id="-l9Mk85zTir52LxoKMyz-226" value="&lt;font style=&quot;font-size: 12px;&quot;&gt;$$...$$&lt;/font&gt;" style="text;html=1;align=center;verticalAlign=middle;resizable=0;points=[];autosize=1;strokeColor=none;fillColor=none;fontStyle=2" vertex="1" parent="1">
          <mxGeometry x="2270.16" y="870.1200000000001" width="60" height="30" as="geometry" />
        </mxCell>
        <mxCell id="-l9Mk85zTir52LxoKMyz-227" value="&lt;font style=&quot;font-size: 9px;&quot;&gt;$$class\_global$$&lt;/font&gt;" style="text;html=1;align=center;verticalAlign=middle;resizable=0;points=[];autosize=1;strokeColor=none;fillColor=none;fontStyle=2" vertex="1" parent="1">
          <mxGeometry x="2282.54" y="861.6299999999999" width="100" height="30" as="geometry" />
        </mxCell>
        <mxCell id="-l9Mk85zTir52LxoKMyz-239" value="&lt;font style=&quot;font-size: 12px;&quot;&gt;$$sort$$&lt;/font&gt;" style="text;html=1;align=center;verticalAlign=middle;resizable=0;points=[];autosize=1;strokeColor=none;fillColor=none;fontSize=18;fontStyle=2" vertex="1" parent="1">
          <mxGeometry x="1661.63" y="899.75" width="70" height="40" as="geometry" />
        </mxCell>
        <mxCell id="-l9Mk85zTir52LxoKMyz-245" value="" style="shape=partialRectangle;html=1;whiteSpace=wrap;connectable=0;overflow=hidden;fillColor=#009900;top=0;left=0;bottom=0;right=0;pointerEvents=1;rounded=1;strokeColor=default;fontFamily=Helvetica;fontSize=12;fontColor=default;fontStyle=2" vertex="1" parent="1">
          <mxGeometry x="1336" y="935.75" width="19" height="15" as="geometry">
            <mxRectangle width="19" height="15" as="alternateBounds" />
          </mxGeometry>
        </mxCell>
        <mxCell id="-l9Mk85zTir52LxoKMyz-246" value="" style="shape=partialRectangle;html=1;whiteSpace=wrap;connectable=0;overflow=hidden;fillColor=#003300;top=0;left=0;bottom=0;right=0;pointerEvents=1;rounded=1;strokeColor=default;fontFamily=Helvetica;fontSize=12;fontColor=default;fontStyle=2" vertex="1" parent="1">
          <mxGeometry x="1355" y="935.75" width="18" height="15" as="geometry">
            <mxRectangle width="18" height="15" as="alternateBounds" />
          </mxGeometry>
        </mxCell>
        <mxCell id="-l9Mk85zTir52LxoKMyz-315" style="edgeStyle=orthogonalEdgeStyle;rounded=0;jumpSize=16;orthogonalLoop=1;jettySize=auto;html=1;fontSize=15;fontColor=#000000;startArrow=none;startFill=0;endArrow=classic;endFill=1;startSize=16;endSize=8;strokeWidth=2;" edge="1" parent="1" source="-l9Mk85zTir52LxoKMyz-253">
          <mxGeometry relative="1" as="geometry">
            <mxPoint x="1433.63" y="940" as="targetPoint" />
          </mxGeometry>
        </mxCell>
        <mxCell id="-l9Mk85zTir52LxoKMyz-253" value="" style="shape=trapezoid;perimeter=trapezoidPerimeter;whiteSpace=wrap;html=1;fixedSize=1;strokeColor=#6c8ebf;fontSize=15;fillColor=#dae8fc;rotation=-90;verticalAlign=top;fontStyle=2" vertex="1" parent="1">
          <mxGeometry x="1455.96" y="913.06" width="91.5" height="53.76" as="geometry" />
        </mxCell>
        <mxCell id="-l9Mk85zTir52LxoKMyz-254" value="&lt;font style=&quot;font-size: 13px;&quot;&gt;$$Map$$&lt;/font&gt;" style="text;html=1;align=center;verticalAlign=middle;resizable=0;points=[];autosize=1;strokeColor=none;fillColor=none;fontSize=15;fontColor=#000000;fontStyle=2" vertex="1" parent="1">
          <mxGeometry x="1460.96" y="924.94" width="80" height="30" as="geometry" />
        </mxCell>
        <mxCell id="-l9Mk85zTir52LxoKMyz-318" style="edgeStyle=orthogonalEdgeStyle;rounded=0;jumpSize=16;orthogonalLoop=1;jettySize=auto;html=1;entryX=0.5;entryY=1;entryDx=0;entryDy=0;fontSize=15;fontColor=#000000;startArrow=none;startFill=0;endArrow=classic;endFill=1;startSize=16;endSize=8;strokeWidth=2;" edge="1" parent="1" source="-l9Mk85zTir52LxoKMyz-321" target="-l9Mk85zTir52LxoKMyz-360">
          <mxGeometry relative="1" as="geometry" />
        </mxCell>
        <mxCell id="-l9Mk85zTir52LxoKMyz-402" style="edgeStyle=orthogonalEdgeStyle;rounded=1;jumpSize=16;orthogonalLoop=1;jettySize=auto;html=1;entryX=0.25;entryY=0.531;entryDx=0;entryDy=0;entryPerimeter=0;strokeColor=#000000;strokeWidth=2;fontSize=10;fontColor=#000000;startArrow=none;startFill=0;endArrow=classic;endFill=1;startSize=16;endSize=8;exitX=0.5;exitY=0;exitDx=0;exitDy=0;" edge="1" parent="1">
          <mxGeometry relative="1" as="geometry">
            <mxPoint x="1524.5900000000001" y="743.9999999999998" as="sourcePoint" />
            <mxPoint x="1619.6300000000006" y="744" as="targetPoint" />
          </mxGeometry>
        </mxCell>
        <mxCell id="-l9Mk85zTir52LxoKMyz-311" style="edgeStyle=orthogonalEdgeStyle;rounded=0;jumpSize=16;orthogonalLoop=1;jettySize=auto;html=1;entryX=1;entryY=1;entryDx=0;entryDy=0;fontSize=15;fontColor=#000000;startArrow=none;startFill=0;endArrow=classic;endFill=1;startSize=16;endSize=8;strokeWidth=2;" edge="1" parent="1" source="-l9Mk85zTir52LxoKMyz-172" target="-l9Mk85zTir52LxoKMyz-270">
          <mxGeometry relative="1" as="geometry">
            <Array as="points">
              <mxPoint x="1806.63" y="939" />
              <mxPoint x="1806.63" y="940" />
            </Array>
          </mxGeometry>
        </mxCell>
        <mxCell id="-l9Mk85zTir52LxoKMyz-172" value="&lt;font style=&quot;font-size: 15px;&quot;&gt;&lt;span&gt;u-net&lt;/span&gt;&lt;/font&gt;" style="rounded=1;whiteSpace=wrap;html=1;strokeColor=#b85450;fontFamily=Helvetica;fontSize=12;fillColor=#f8cecc;fontStyle=2" vertex="1" parent="1">
          <mxGeometry x="1851.62" y="893.94" width="59.86" height="90" as="geometry" />
        </mxCell>
        <mxCell id="-l9Mk85zTir52LxoKMyz-261" style="edgeStyle=orthogonalEdgeStyle;rounded=0;jumpSize=16;orthogonalLoop=1;jettySize=auto;html=1;entryX=0.498;entryY=1.002;entryDx=0;entryDy=0;entryPerimeter=0;fontSize=13;fontColor=#000000;startArrow=none;startFill=0;endArrow=classic;endFill=1;startSize=16;endSize=8;fontStyle=2" edge="1" parent="1" source="-l9Mk85zTir52LxoKMyz-259" target="-l9Mk85zTir52LxoKMyz-170">
          <mxGeometry relative="1" as="geometry" />
        </mxCell>
        <mxCell id="-l9Mk85zTir52LxoKMyz-320" style="edgeStyle=orthogonalEdgeStyle;rounded=0;jumpSize=16;orthogonalLoop=1;jettySize=auto;html=1;entryX=0.507;entryY=-0.023;entryDx=0;entryDy=0;fontSize=15;fontColor=#000000;startArrow=none;startFill=0;endArrow=classic;endFill=1;startSize=16;endSize=8;entryPerimeter=0;exitX=0.5;exitY=0;exitDx=0;exitDy=0;" edge="1" parent="1" source="-l9Mk85zTir52LxoKMyz-259" target="-l9Mk85zTir52LxoKMyz-323">
          <mxGeometry relative="1" as="geometry">
            <mxPoint x="2203.63" y="987" as="sourcePoint" />
            <Array as="points">
              <mxPoint x="2153.63" y="987" />
              <mxPoint x="2153.63" y="670" />
              <mxPoint x="1644.63" y="670" />
            </Array>
          </mxGeometry>
        </mxCell>
        <mxCell id="-l9Mk85zTir52LxoKMyz-259" value="" style="shape=trapezoid;perimeter=trapezoidPerimeter;whiteSpace=wrap;html=1;fixedSize=1;strokeColor=#6c8ebf;fontSize=13;fillColor=#dae8fc;rotation=-90;fontStyle=2" vertex="1" parent="1">
          <mxGeometry x="2189.67" y="960.8499999999999" width="73.41" height="51.34" as="geometry" />
        </mxCell>
        <mxCell id="-l9Mk85zTir52LxoKMyz-262" value="" style="endArrow=classic;html=1;rounded=1;fontSize=13;fontColor=#000000;startSize=16;endSize=8;jumpSize=16;fontStyle=2" edge="1" parent="1">
          <mxGeometry width="50" height="50" relative="1" as="geometry">
            <mxPoint x="2008.63" y="940" as="sourcePoint" />
            <mxPoint x="1813.63" y="938" as="targetPoint" />
            <Array as="points">
              <mxPoint x="2008.63" y="870" />
              <mxPoint x="1923.63" y="870" />
              <mxPoint x="1813.63" y="870" />
            </Array>
          </mxGeometry>
        </mxCell>
        <mxCell id="-l9Mk85zTir52LxoKMyz-319" style="edgeStyle=orthogonalEdgeStyle;rounded=0;jumpSize=16;orthogonalLoop=1;jettySize=auto;html=1;fontSize=15;fontColor=#000000;startArrow=none;startFill=0;endArrow=classic;endFill=1;startSize=16;endSize=8;exitX=0.5;exitY=1;exitDx=0;exitDy=0;strokeWidth=2;" edge="1" parent="1" source="-l9Mk85zTir52LxoKMyz-361" target="-l9Mk85zTir52LxoKMyz-178">
          <mxGeometry relative="1" as="geometry">
            <mxPoint x="2063.63" y="820" as="targetPoint" />
            <Array as="points">
              <mxPoint x="2078.63" y="744" />
            </Array>
          </mxGeometry>
        </mxCell>
        <mxCell id="-l9Mk85zTir52LxoKMyz-269" value="&lt;font style=&quot;font-size: 14px;&quot;&gt;$$x_{0}^1$$&lt;/font&gt;" style="rounded=0;whiteSpace=wrap;html=1;strokeColor=#9673a6;fontFamily=Helvetica;fontSize=12;fillColor=#e1d5e7;fontStyle=2" vertex="1" parent="1">
          <mxGeometry x="1725.6300000000006" y="859.75" width="36" height="40" as="geometry" />
        </mxCell>
        <mxCell id="-l9Mk85zTir52LxoKMyz-270" value="&lt;font style=&quot;font-size: 14px;&quot;&gt;$$x_{0}^2$$&lt;/font&gt;" style="rounded=0;whiteSpace=wrap;html=1;strokeColor=#9673a6;fontFamily=Helvetica;fontSize=12;fillColor=#e1d5e7;fontStyle=2" vertex="1" parent="1">
          <mxGeometry x="1725.6300000000006" y="899.75" width="36" height="40" as="geometry" />
        </mxCell>
        <mxCell id="-l9Mk85zTir52LxoKMyz-312" style="edgeStyle=orthogonalEdgeStyle;rounded=0;jumpSize=16;orthogonalLoop=1;jettySize=auto;html=1;entryX=1;entryY=1;entryDx=0;entryDy=0;fontSize=15;fontColor=#000000;startArrow=none;startFill=0;endArrow=classic;endFill=1;startSize=16;endSize=8;strokeWidth=2;" edge="1" parent="1" source="-l9Mk85zTir52LxoKMyz-271" target="-l9Mk85zTir52LxoKMyz-274">
          <mxGeometry relative="1" as="geometry">
            <Array as="points">
              <mxPoint x="1693.63" y="940" />
              <mxPoint x="1693.63" y="940" />
            </Array>
          </mxGeometry>
        </mxCell>
        <mxCell id="-l9Mk85zTir52LxoKMyz-271" value="&lt;font style=&quot;font-size: 14px;&quot;&gt;$$x_{0}^3$$&lt;/font&gt;" style="rounded=0;whiteSpace=wrap;html=1;strokeColor=#9673a6;fontFamily=Helvetica;fontSize=12;fillColor=#e1d5e7;fontStyle=2" vertex="1" parent="1">
          <mxGeometry x="1725.6300000000006" y="939.75" width="36" height="40" as="geometry" />
        </mxCell>
        <mxCell id="-l9Mk85zTir52LxoKMyz-272" value="&lt;font style=&quot;font-size: 14px;&quot;&gt;$$x_{0}^4$$&lt;/font&gt;" style="rounded=0;whiteSpace=wrap;html=1;strokeColor=#9673a6;fontFamily=Helvetica;fontSize=12;fillColor=#e1d5e7;fontStyle=2" vertex="1" parent="1">
          <mxGeometry x="1725.6300000000006" y="979.75" width="36" height="40" as="geometry" />
        </mxCell>
        <mxCell id="-l9Mk85zTir52LxoKMyz-273" value="&lt;font style=&quot;font-size: 14px;&quot;&gt;$$x_{0}^1$$&lt;/font&gt;" style="rounded=0;whiteSpace=wrap;html=1;strokeColor=#9673a6;fontFamily=Helvetica;fontSize=12;fillColor=#e1d5e7;fontStyle=2" vertex="1" parent="1">
          <mxGeometry x="1633.6300000000006" y="859.75" width="36" height="40" as="geometry" />
        </mxCell>
        <mxCell id="-l9Mk85zTir52LxoKMyz-314" style="edgeStyle=orthogonalEdgeStyle;rounded=0;jumpSize=16;orthogonalLoop=1;jettySize=auto;html=1;entryX=0.5;entryY=1;entryDx=0;entryDy=0;fontSize=15;fontColor=#000000;startArrow=none;startFill=0;endArrow=classic;endFill=1;startSize=16;endSize=8;strokeWidth=2;" edge="1" parent="1" source="-l9Mk85zTir52LxoKMyz-274" target="-l9Mk85zTir52LxoKMyz-253">
          <mxGeometry relative="1" as="geometry">
            <Array as="points">
              <mxPoint x="1581.63" y="940" />
              <mxPoint x="1581.63" y="939" />
            </Array>
          </mxGeometry>
        </mxCell>
        <mxCell id="-l9Mk85zTir52LxoKMyz-274" value="&lt;font style=&quot;font-size: 14px;&quot;&gt;$$x_{0}^2$$&lt;/font&gt;" style="rounded=0;whiteSpace=wrap;html=1;strokeColor=#9673a6;fontFamily=Helvetica;fontSize=12;fillColor=#e1d5e7;fontStyle=2" vertex="1" parent="1">
          <mxGeometry x="1633.6300000000006" y="899.75" width="36" height="40" as="geometry" />
        </mxCell>
        <mxCell id="-l9Mk85zTir52LxoKMyz-275" value="&lt;font style=&quot;font-size: 14px;&quot;&gt;$$x_{0}^3$$&lt;/font&gt;" style="rounded=0;whiteSpace=wrap;html=1;strokeColor=#9673a6;fontFamily=Helvetica;fontSize=12;fillColor=#e1d5e7;fontStyle=2" vertex="1" parent="1">
          <mxGeometry x="1633.6300000000006" y="939.75" width="36" height="40" as="geometry" />
        </mxCell>
        <mxCell id="-l9Mk85zTir52LxoKMyz-276" value="&lt;font style=&quot;font-size: 14px;&quot;&gt;$$x_{0}^4$$&lt;/font&gt;" style="rounded=0;whiteSpace=wrap;html=1;strokeColor=#808080;fontFamily=Helvetica;fontSize=12;fillColor=#B3B3B3;fontStyle=2;" vertex="1" parent="1">
          <mxGeometry x="1633.6300000000006" y="979.75" width="36" height="40" as="geometry" />
        </mxCell>
        <mxCell id="-l9Mk85zTir52LxoKMyz-279" value="$$Embed$$" style="text;html=1;align=center;verticalAlign=middle;resizable=0;points=[];autosize=1;strokeColor=none;fillColor=none;fontSize=13;fontColor=#000000;fontStyle=2" vertex="1" parent="1">
          <mxGeometry x="2180.16" y="971.52" width="90" height="30" as="geometry" />
        </mxCell>
        <mxCell id="-l9Mk85zTir52LxoKMyz-284" value="" style="shape=partialRectangle;html=1;whiteSpace=wrap;connectable=0;overflow=hidden;top=0;left=0;bottom=0;right=0;pointerEvents=1;rounded=1;fontFamily=Helvetica;fontSize=12;fillColor=#00331A;fontStyle=2" vertex="1" parent="1">
          <mxGeometry x="2304.4900000000002" y="709.6400000000001" width="19" height="15" as="geometry">
            <mxRectangle width="19" height="15" as="alternateBounds" />
          </mxGeometry>
        </mxCell>
        <mxCell id="-l9Mk85zTir52LxoKMyz-285" value="" style="shape=partialRectangle;html=1;whiteSpace=wrap;connectable=0;overflow=hidden;fillColor=#00CC66;top=0;left=0;bottom=0;right=0;pointerEvents=1;rounded=1;strokeColor=default;fontFamily=Helvetica;fontSize=12;fontColor=default;fontStyle=2" vertex="1" parent="1">
          <mxGeometry x="2323.4900000000002" y="709.6400000000001" width="18" height="15" as="geometry">
            <mxRectangle width="18" height="15" as="alternateBounds" />
          </mxGeometry>
        </mxCell>
        <mxCell id="-l9Mk85zTir52LxoKMyz-293" value="" style="shape=partialRectangle;html=1;whiteSpace=wrap;connectable=0;overflow=hidden;top=0;left=0;bottom=0;right=0;pointerEvents=1;rounded=1;fontFamily=Helvetica;fontSize=12;fillColor=#009900;fontStyle=2" vertex="1" parent="1">
          <mxGeometry x="2267.4900000000002" y="709.6400000000001" width="19" height="15" as="geometry">
            <mxRectangle width="19" height="15" as="alternateBounds" />
          </mxGeometry>
        </mxCell>
        <mxCell id="-l9Mk85zTir52LxoKMyz-294" value="" style="shape=partialRectangle;html=1;whiteSpace=wrap;connectable=0;overflow=hidden;fillColor=#33FF33;top=0;left=0;bottom=0;right=0;pointerEvents=1;rounded=1;strokeColor=default;fontFamily=Helvetica;fontSize=12;fontColor=default;fontStyle=2" vertex="1" parent="1">
          <mxGeometry x="2286.4900000000002" y="709.6400000000001" width="18" height="15" as="geometry">
            <mxRectangle width="18" height="15" as="alternateBounds" />
          </mxGeometry>
        </mxCell>
        <mxCell id="-l9Mk85zTir52LxoKMyz-302" style="edgeStyle=orthogonalEdgeStyle;rounded=0;jumpSize=16;orthogonalLoop=1;jettySize=auto;html=1;entryX=0.5;entryY=0;entryDx=0;entryDy=0;fontSize=12;fontColor=#000000;startArrow=none;startFill=0;endArrow=classic;endFill=1;startSize=16;endSize=8;fontStyle=2" edge="1" parent="1" target="-l9Mk85zTir52LxoKMyz-162">
          <mxGeometry relative="1" as="geometry">
            <mxPoint x="2304.63" y="780" as="sourcePoint" />
            <Array as="points">
              <mxPoint x="2304.63" y="790" />
              <mxPoint x="2304.63" y="790" />
            </Array>
          </mxGeometry>
        </mxCell>
        <mxCell id="-l9Mk85zTir52LxoKMyz-304" value="$$(a).Latent\ Space\ Guidance\ Diffusion\ Model$$" style="text;html=1;align=center;verticalAlign=middle;resizable=0;points=[];autosize=1;strokeColor=none;fillColor=none;fontSize=12;fontColor=#000000;fontStyle=2" vertex="1" parent="1">
          <mxGeometry x="1721.63" y="634.88" width="290" height="30" as="geometry" />
        </mxCell>
        <mxCell id="-l9Mk85zTir52LxoKMyz-316" value="" style="endArrow=classic;html=1;rounded=0;fontSize=15;fontColor=#000000;startSize=16;endSize=8;jumpSize=16;strokeWidth=2;" edge="1" parent="1">
          <mxGeometry width="50" height="50" relative="1" as="geometry">
            <mxPoint x="1433.63" y="744" as="sourcePoint" />
            <mxPoint x="1475.63" y="743.76" as="targetPoint" />
          </mxGeometry>
        </mxCell>
        <mxCell id="-l9Mk85zTir52LxoKMyz-321" value="" style="rounded=0;whiteSpace=wrap;html=1;fontStyle=2" vertex="1" parent="1">
          <mxGeometry x="1619.63" y="728.5699999999999" width="50" height="30" as="geometry" />
        </mxCell>
        <mxCell id="-l9Mk85zTir52LxoKMyz-323" value="$$fusion$$" style="text;html=1;align=center;verticalAlign=middle;resizable=0;points=[];autosize=1;strokeColor=none;fillColor=none;fontSize=12;fontFamily=Helvetica;fontColor=default;fontStyle=2" vertex="1" parent="1">
          <mxGeometry x="1603.6300000000006" y="728.0700000000002" width="80" height="30" as="geometry" />
        </mxCell>
        <mxCell id="-l9Mk85zTir52LxoKMyz-325" value="" style="endArrow=classic;html=1;fontSize=15;fontColor=#000000;startSize=16;endSize=8;jumpSize=16;strokeColor=default;rounded=1;" edge="1" parent="1">
          <mxGeometry width="50" height="50" relative="1" as="geometry">
            <mxPoint x="1590.06" y="743.0699999999999" as="sourcePoint" />
            <mxPoint x="2013.63" y="743" as="targetPoint" />
            <Array as="points">
              <mxPoint x="1589.63" y="810" />
              <mxPoint x="2013.63" y="810" />
            </Array>
          </mxGeometry>
        </mxCell>
        <mxCell id="-l9Mk85zTir52LxoKMyz-326" value="$$×T$$" style="text;html=1;align=center;verticalAlign=middle;resizable=0;points=[];autosize=1;strokeColor=none;fillColor=none;fontStyle=2" vertex="1" parent="1">
          <mxGeometry x="1744.5900000000006" y="810.1199999999999" width="60" height="30" as="geometry" />
        </mxCell>
        <mxCell id="-l9Mk85zTir52LxoKMyz-341" value="" style="shape=partialRectangle;html=1;whiteSpace=wrap;connectable=0;overflow=hidden;fillColor=#4D9900;top=0;left=0;bottom=0;right=0;pointerEvents=1;rounded=1;strokeColor=default;fontFamily=Helvetica;fontSize=12;fontColor=default;fontStyle=2" vertex="1" parent="1">
          <mxGeometry x="1372.0700000000002" y="741.0700000000002" width="19" height="15" as="geometry">
            <mxRectangle width="19" height="15" as="alternateBounds" />
          </mxGeometry>
        </mxCell>
        <mxCell id="-l9Mk85zTir52LxoKMyz-342" value="" style="shape=partialRectangle;html=1;whiteSpace=wrap;connectable=0;overflow=hidden;fillColor=#003300;top=0;left=0;bottom=0;right=0;pointerEvents=1;rounded=1;strokeColor=default;fontFamily=Helvetica;fontSize=12;fontColor=default;fontStyle=2" vertex="1" parent="1">
          <mxGeometry x="1390.7200000000003" y="741.0700000000002" width="18" height="15" as="geometry">
            <mxRectangle width="18" height="15" as="alternateBounds" />
          </mxGeometry>
        </mxCell>
        <mxCell id="-l9Mk85zTir52LxoKMyz-343" value="" style="shape=partialRectangle;html=1;whiteSpace=wrap;connectable=0;overflow=hidden;fillColor=#009900;top=0;left=0;bottom=0;right=0;pointerEvents=1;rounded=1;strokeColor=default;fontFamily=Helvetica;fontSize=12;fontColor=default;fontStyle=2" vertex="1" parent="1">
          <mxGeometry x="1335.94" y="741.0700000000002" width="19" height="15" as="geometry">
            <mxRectangle width="19" height="15" as="alternateBounds" />
          </mxGeometry>
        </mxCell>
        <mxCell id="-l9Mk85zTir52LxoKMyz-344" value="" style="shape=partialRectangle;html=1;whiteSpace=wrap;connectable=0;overflow=hidden;fillColor=#003300;top=0;left=0;bottom=0;right=0;pointerEvents=1;rounded=1;strokeColor=default;fontFamily=Helvetica;fontSize=12;fontColor=default;fontStyle=2" vertex="1" parent="1">
          <mxGeometry x="1354.94" y="741.0700000000002" width="18" height="15" as="geometry">
            <mxRectangle width="18" height="15" as="alternateBounds" />
          </mxGeometry>
        </mxCell>
        <mxCell id="-l9Mk85zTir52LxoKMyz-357" value="&lt;font style=&quot;font-size: 12px;&quot;&gt;$$Cells$$&lt;/font&gt;" style="text;html=1;align=center;verticalAlign=middle;resizable=0;points=[];autosize=1;strokeColor=none;fillColor=none;fontSize=10;fontFamily=Helvetica;fontColor=default;horizontal=0;fontStyle=2;rotation=90;" vertex="1" parent="1">
          <mxGeometry x="1355" y="927.6899999999996" width="40" height="70" as="geometry" />
        </mxCell>
        <mxCell id="-l9Mk85zTir52LxoKMyz-359" value="..." style="text;html=1;align=center;verticalAlign=middle;resizable=0;points=[];autosize=1;strokeColor=none;fillColor=none;fontSize=15;fontColor=#000000;" vertex="1" parent="1">
          <mxGeometry x="2295.9900000000002" y="669.8799999999999" width="40" height="30" as="geometry" />
        </mxCell>
        <mxCell id="-l9Mk85zTir52LxoKMyz-362" style="edgeStyle=orthogonalEdgeStyle;rounded=0;jumpSize=16;orthogonalLoop=1;jettySize=auto;html=1;entryX=0.5;entryY=0;entryDx=0;entryDy=0;fontSize=15;fontColor=#000000;startArrow=none;startFill=0;endArrow=classic;endFill=1;startSize=16;endSize=8;strokeWidth=2;" edge="1" parent="1" source="-l9Mk85zTir52LxoKMyz-360" target="-l9Mk85zTir52LxoKMyz-361">
          <mxGeometry relative="1" as="geometry" />
        </mxCell>
        <mxCell id="-l9Mk85zTir52LxoKMyz-360" value="" style="shape=trapezoid;perimeter=trapezoidPerimeter;whiteSpace=wrap;html=1;fixedSize=1;sketch=0;strokeColor=#b85450;fontSize=15;fillColor=#f8cecc;rotation=90;rounded=0;" vertex="1" parent="1">
          <mxGeometry x="1731.63" y="697.71" width="85.93" height="91.71" as="geometry" />
        </mxCell>
        <mxCell id="-l9Mk85zTir52LxoKMyz-361" value="" style="shape=trapezoid;perimeter=trapezoidPerimeter;whiteSpace=wrap;html=1;fixedSize=1;sketch=0;strokeColor=#b85450;fontSize=15;fillColor=#f8cecc;rotation=-90;rounded=0;" vertex="1" parent="1">
          <mxGeometry x="1857.19" y="697.1500000000001" width="85.93" height="91.71" as="geometry" />
        </mxCell>
        <mxCell id="-l9Mk85zTir52LxoKMyz-364" value="&lt;i&gt;u-net&lt;/i&gt;" style="text;html=1;align=center;verticalAlign=middle;resizable=0;points=[];autosize=1;strokeColor=none;fillColor=none;fontSize=15;fontColor=#000000;" vertex="1" parent="1">
          <mxGeometry x="1808.67" y="675" width="60" height="30" as="geometry" />
        </mxCell>
        <mxCell id="-l9Mk85zTir52LxoKMyz-365" value="&lt;font style=&quot;font-size: 12px;&quot;&gt;$$Cells$$&lt;/font&gt;" style="text;html=1;align=center;verticalAlign=middle;resizable=0;points=[];autosize=1;strokeColor=none;fillColor=none;fontSize=10;fontFamily=Helvetica;fontColor=default;horizontal=0;fontStyle=2;rotation=90;" vertex="1" parent="1">
          <mxGeometry x="2215.21" y="672.6999999999996" width="40" height="70" as="geometry" />
        </mxCell>
        <mxCell id="-l9Mk85zTir52LxoKMyz-366" value="&lt;font style=&quot;font-size: 13px;&quot;&gt;$$conv$$&lt;/font&gt;" style="rounded=1;whiteSpace=wrap;html=1;sketch=0;strokeColor=#6c8ebf;fontSize=15;fillColor=#dae8fc;" vertex="1" parent="1">
          <mxGeometry x="1731.63" y="718.8599999999999" width="36.5" height="50" as="geometry" />
        </mxCell>
        <mxCell id="-l9Mk85zTir52LxoKMyz-367" value="&lt;font style=&quot;font-size: 13px;&quot;&gt;$$conv$$&lt;/font&gt;" style="rounded=1;whiteSpace=wrap;html=1;sketch=0;strokeColor=#6c8ebf;fontSize=15;fillColor=#dae8fc;" vertex="1" parent="1">
          <mxGeometry x="1773.62" y="719" width="36.5" height="50" as="geometry" />
        </mxCell>
        <mxCell id="-l9Mk85zTir52LxoKMyz-368" value="&lt;font style=&quot;font-size: 13px;&quot;&gt;$$conv$$&lt;/font&gt;" style="rounded=1;whiteSpace=wrap;html=1;sketch=0;strokeColor=#6c8ebf;fontSize=15;fillColor=#dae8fc;" vertex="1" parent="1">
          <mxGeometry x="1864.67" y="717.7" width="36.5" height="50" as="geometry" />
        </mxCell>
        <mxCell id="-l9Mk85zTir52LxoKMyz-369" value="&lt;font style=&quot;font-size: 13px;&quot;&gt;$$conv$$&lt;/font&gt;" style="rounded=1;whiteSpace=wrap;html=1;sketch=0;strokeColor=#6c8ebf;fontSize=15;fillColor=#dae8fc;" vertex="1" parent="1">
          <mxGeometry x="1905.62" y="717.1199999999999" width="36.5" height="50" as="geometry" />
        </mxCell>
        <mxCell id="-l9Mk85zTir52LxoKMyz-370" value="$$(b).Pre-Guidance\ Mechanism$$" style="text;html=1;align=center;verticalAlign=middle;resizable=0;points=[];autosize=1;strokeColor=none;fillColor=none;fontSize=13;fontColor=#000000;" vertex="1" parent="1">
          <mxGeometry x="2171.98" y="634.88" width="230" height="30" as="geometry" />
        </mxCell>
        <mxCell id="-l9Mk85zTir52LxoKMyz-372" value="$$(c).Post-Guidance\ Mechanism$$" style="text;html=1;align=center;verticalAlign=middle;resizable=0;points=[];autosize=1;strokeColor=none;fillColor=none;fontSize=13;fontColor=#000000;" vertex="1" parent="1">
          <mxGeometry x="1581.63" y="1040" width="230" height="30" as="geometry" />
        </mxCell>
        <mxCell id="-l9Mk85zTir52LxoKMyz-374" value="&lt;font style=&quot;font-size: 10px;&quot;&gt;$$conv$$&lt;/font&gt;" style="rounded=1;whiteSpace=wrap;html=1;sketch=0;strokeColor=#6c8ebf;fontSize=15;fillColor=#dae8fc;" vertex="1" parent="1">
          <mxGeometry x="1380.3899999999999" y="1087" width="28.67" height="30" as="geometry" />
        </mxCell>
        <mxCell id="-l9Mk85zTir52LxoKMyz-379" value="" style="endArrow=classic;html=1;rounded=1;strokeColor=#CCCCCC;fontSize=13;fontColor=#000000;startSize=16;endSize=8;jumpSize=16;entryX=0.954;entryY=0.674;entryDx=0;entryDy=0;entryPerimeter=0;dashed=1;fillColor=#f5f5f5;exitX=0.034;exitY=0.74;exitDx=0;exitDy=0;exitPerimeter=0;" edge="1" parent="1">
          <mxGeometry width="50" height="50" relative="1" as="geometry">
            <mxPoint x="1752.5846000000001" y="702.52162" as="sourcePoint" />
            <mxPoint x="1916.11254" y="702.99278" as="targetPoint" />
          </mxGeometry>
        </mxCell>
        <mxCell id="-l9Mk85zTir52LxoKMyz-380" value="" style="endArrow=classic;html=1;rounded=1;strokeColor=#CCCCCC;fontSize=13;fontColor=#000000;startSize=16;endSize=8;jumpSize=16;dashed=1;fillColor=#f5f5f5;" edge="1" parent="1">
          <mxGeometry width="50" height="50" relative="1" as="geometry">
            <mxPoint x="1784.79" y="710.49" as="sourcePoint" />
            <mxPoint x="1884.63" y="710" as="targetPoint" />
          </mxGeometry>
        </mxCell>
        <mxCell id="-l9Mk85zTir52LxoKMyz-381" value="" style="endArrow=classic;html=1;rounded=1;strokeColor=#CCCCCC;fontSize=13;fontColor=#000000;startSize=16;endSize=8;jumpSize=16;dashed=1;fillColor=#f5f5f5;" edge="1" parent="1">
          <mxGeometry width="50" height="50" relative="1" as="geometry">
            <mxPoint x="1783.79" y="775.49" as="sourcePoint" />
            <mxPoint x="1883.63" y="775" as="targetPoint" />
          </mxGeometry>
        </mxCell>
        <mxCell id="-l9Mk85zTir52LxoKMyz-382" value="" style="endArrow=classic;html=1;rounded=1;strokeColor=#CCCCCC;fontSize=13;fontColor=#000000;startSize=16;endSize=8;jumpSize=16;entryX=0.954;entryY=0.674;entryDx=0;entryDy=0;entryPerimeter=0;dashed=1;fillColor=#f5f5f5;exitX=0.034;exitY=0.74;exitDx=0;exitDy=0;exitPerimeter=0;" edge="1" parent="1">
          <mxGeometry width="50" height="50" relative="1" as="geometry">
            <mxPoint x="1751.9546" y="782.00162" as="sourcePoint" />
            <mxPoint x="1915.48254" y="782.4727800000001" as="targetPoint" />
          </mxGeometry>
        </mxCell>
        <mxCell id="-l9Mk85zTir52LxoKMyz-383" value="" style="endArrow=classic;html=1;rounded=1;strokeColor=#CCCCCC;fontSize=13;fontColor=#000000;startSize=16;endSize=8;jumpSize=16;dashed=1;fillColor=#f5f5f5;exitX=0.034;exitY=0.74;exitDx=0;exitDy=0;exitPerimeter=0;" edge="1" parent="1">
          <mxGeometry width="50" height="50" relative="1" as="geometry">
            <mxPoint x="1466.6346000000003" y="1098.0016200000002" as="sourcePoint" />
            <mxPoint x="1542.8000000000002" y="1098.0000000000002" as="targetPoint" />
          </mxGeometry>
        </mxCell>
        <mxCell id="-l9Mk85zTir52LxoKMyz-386" value="&lt;font style=&quot;font-size: 10px;&quot;&gt;$$convolutional\ layer$$&lt;/font&gt;" style="text;html=1;align=center;verticalAlign=middle;resizable=0;points=[];autosize=1;strokeColor=none;fillColor=none;fontSize=13;fontColor=#000000;" vertex="1" parent="1">
          <mxGeometry x="1330" y="1117" width="130" height="30" as="geometry" />
        </mxCell>
        <mxCell id="-l9Mk85zTir52LxoKMyz-387" value="&lt;font style=&quot;font-size: 10px;&quot;&gt;$$skip\ connection$$&lt;/font&gt;" style="text;html=1;align=center;verticalAlign=middle;resizable=0;points=[];autosize=1;strokeColor=none;fillColor=none;fontSize=13;fontColor=#000000;" vertex="1" parent="1">
          <mxGeometry x="1446.83" y="1116" width="110" height="30" as="geometry" />
        </mxCell>
        <mxCell id="-l9Mk85zTir52LxoKMyz-389" value="&lt;font style=&quot;font-size: 12px;&quot;&gt;$$x_{i}^j$$&lt;/font&gt;" style="rounded=0;whiteSpace=wrap;html=1;strokeColor=#9673a6;fontFamily=Helvetica;fontSize=12;fillColor=#e1d5e7;fontStyle=2" vertex="1" parent="1">
          <mxGeometry x="1588.8200000000002" y="1085" width="34.81" height="30" as="geometry" />
        </mxCell>
        <mxCell id="-l9Mk85zTir52LxoKMyz-392" value="&lt;font style=&quot;font-size: 10px;&quot;&gt;$$step\ i, sample\ j$$&lt;/font&gt;" style="text;html=1;align=center;verticalAlign=middle;resizable=0;points=[];autosize=1;strokeColor=none;fillColor=none;fontSize=12;fontColor=#000000;" vertex="1" parent="1">
          <mxGeometry x="1545.8200000000002" y="1116" width="120" height="30" as="geometry" />
        </mxCell>
        <mxCell id="-l9Mk85zTir52LxoKMyz-393" value="" style="rounded=1;whiteSpace=wrap;html=1;sketch=0;strokeColor=#000000;fontSize=10;fontColor=#000000;fillColor=#FFFFFF;gradientColor=none;arcSize=50;" vertex="1" parent="1">
          <mxGeometry x="2259.9900000000002" y="760" width="90" height="36.19" as="geometry" />
        </mxCell>
        <mxCell id="-l9Mk85zTir52LxoKMyz-303" value="$$clustering$$" style="text;html=1;align=center;verticalAlign=middle;resizable=0;points=[];autosize=1;strokeColor=none;fillColor=none;fontSize=12;fontColor=#000000;fontStyle=2" vertex="1" parent="1">
          <mxGeometry x="2255.2100000000005" y="763" width="100" height="30" as="geometry" />
        </mxCell>
        <mxCell id="-l9Mk85zTir52LxoKMyz-394" value="" style="endArrow=classic;html=1;rounded=1;strokeColor=#000000;fontSize=10;fontColor=#000000;startSize=16;endSize=8;jumpSize=16;" edge="1" parent="1">
          <mxGeometry width="50" height="50" relative="1" as="geometry">
            <mxPoint x="2304.73" y="729" as="sourcePoint" />
            <mxPoint x="2304.37" y="761.3599999999999" as="targetPoint" />
          </mxGeometry>
        </mxCell>
        <mxCell id="-l9Mk85zTir52LxoKMyz-396" value="" style="rounded=1;whiteSpace=wrap;html=1;sketch=0;strokeColor=#000000;fontSize=10;fontColor=#000000;fillColor=#FFFFFF;gradientColor=none;arcSize=50;" vertex="1" parent="1">
          <mxGeometry x="1707.0700000000002" y="1087" width="62" height="29.19" as="geometry" />
        </mxCell>
        <mxCell id="-l9Mk85zTir52LxoKMyz-395" value="&lt;font style=&quot;font-size: 10px;&quot;&gt;$$clustering$$&lt;/font&gt;" style="text;html=1;align=center;verticalAlign=middle;resizable=0;points=[];autosize=1;strokeColor=none;fillColor=none;fontSize=12;fontColor=#000000;fontStyle=2" vertex="1" parent="1">
          <mxGeometry x="1693.0300000000002" y="1087" width="90" height="30" as="geometry" />
        </mxCell>
        <mxCell id="-l9Mk85zTir52LxoKMyz-397" value="$$cluster\ cells\ into\ K\ classes$$" style="text;html=1;align=center;verticalAlign=middle;resizable=0;points=[];autosize=1;strokeColor=none;fillColor=none;fontSize=10;fontColor=#000000;" vertex="1" parent="1">
          <mxGeometry x="1653.0300000000002" y="1117" width="170" height="30" as="geometry" />
        </mxCell>
        <mxCell id="-l9Mk85zTir52LxoKMyz-399" value="" style="endArrow=classic;html=1;rounded=1;fontSize=13;fontColor=#000000;startSize=16;endSize=8;jumpSize=16;fontStyle=2;" edge="1" parent="1">
          <mxGeometry width="50" height="50" relative="1" as="geometry">
            <mxPoint x="1870.6" y="1112" as="sourcePoint" />
            <mxPoint x="1836.8299999999995" y="1112" as="targetPoint" />
            <Array as="points">
              <mxPoint x="1870.6" y="1087" />
              <mxPoint x="1836.6" y="1087" />
            </Array>
          </mxGeometry>
        </mxCell>
        <mxCell id="-l9Mk85zTir52LxoKMyz-400" value="$$loop$$" style="text;html=1;align=center;verticalAlign=middle;resizable=0;points=[];autosize=1;strokeColor=none;fillColor=none;fontSize=10;fontColor=#000000;" vertex="1" parent="1">
          <mxGeometry x="1823.63" y="1113" width="60" height="30" as="geometry" />
        </mxCell>
        <mxCell id="-l9Mk85zTir52LxoKMyz-178" value="&lt;div&gt;&lt;font style=&quot;font-size: 12px;&quot;&gt;$$Gaussion$$&lt;/font&gt;&lt;/div&gt;&lt;div&gt;&lt;font style=&quot;font-size: 12px;&quot;&gt;$$Noise$$&lt;/font&gt;&lt;/div&gt;" style="rounded=0;whiteSpace=wrap;html=1;fontFamily=Helvetica;fontSize=14;fillColor=default;fontStyle=2;sketch=0;labelBackgroundColor=none;" vertex="1" parent="1">
          <mxGeometry x="2032.0100000000002" y="808.2499999999998" width="92.5" height="51.5" as="geometry" />
        </mxCell>
        <mxCell id="-l9Mk85zTir52LxoKMyz-250" value="" style="shape=trapezoid;perimeter=trapezoidPerimeter;whiteSpace=wrap;html=1;fixedSize=1;strokeColor=#6c8ebf;fontSize=15;fillColor=#dae8fc;rotation=90;verticalAlign=top;fontStyle=2" vertex="1" parent="1">
          <mxGeometry x="1455.96" y="717.1199999999999" width="91.5" height="53.76" as="geometry" />
        </mxCell>
        <mxCell id="-l9Mk85zTir52LxoKMyz-252" value="&lt;font style=&quot;font-size: 13px;&quot;&gt;$$Round$$&lt;/font&gt;" style="text;html=1;align=center;verticalAlign=middle;resizable=0;points=[];autosize=1;strokeColor=none;fillColor=none;fontSize=15;fontColor=#000000;fontStyle=2" vertex="1" parent="1">
          <mxGeometry x="1455.96" y="729" width="90" height="30" as="geometry" />
        </mxCell>
        <mxCell id="-l9Mk85zTir52LxoKMyz-404" value="" style="rounded=0;whiteSpace=wrap;html=1;strokeColor=#FF3333;fontSize=20;fontColor=#000000;fillColor=#FFFFFF;gradientColor=none;" vertex="1" parent="1">
          <mxGeometry x="2827.13" y="772.6899999999998" width="280" height="225" as="geometry" />
        </mxCell>
        <mxCell id="-l9Mk85zTir52LxoKMyz-405" value="" style="rounded=0;whiteSpace=wrap;html=1;strokeColor=#1A1A1A;fontSize=9;fontColor=#1A1A1A;fillColor=#FFFFFF;dashed=1;" vertex="1" parent="1">
          <mxGeometry x="727.27" y="1715" width="372.13" height="263" as="geometry" />
        </mxCell>
        <mxCell id="-l9Mk85zTir52LxoKMyz-406" value="" style="rounded=0;whiteSpace=wrap;html=1;dashed=1;strokeColor=default;opacity=70;" vertex="1" parent="1">
          <mxGeometry x="1454.7399999999998" y="1738" width="300" height="190" as="geometry" />
        </mxCell>
        <mxCell id="-l9Mk85zTir52LxoKMyz-407" value="$$x_0^4$$" style="shape=cylinder3;whiteSpace=wrap;html=1;boundedLbl=1;backgroundOutline=1;size=15;labelBorderColor=none;strokeColor=#9673a6;fillColor=#e1d5e7;gradientDirection=south;" vertex="1" parent="1">
          <mxGeometry x="1481.65" y="1843.53" width="60" height="53.47" as="geometry" />
        </mxCell>
        <mxCell id="-l9Mk85zTir52LxoKMyz-408" value="$$x_0^3$$" style="shape=cylinder3;whiteSpace=wrap;html=1;boundedLbl=1;backgroundOutline=1;size=15;labelBorderColor=none;strokeColor=#9673a6;fillColor=#e1d5e7;gradientDirection=south;" vertex="1" parent="1">
          <mxGeometry x="1481.65" y="1820.8400000000001" width="60" height="53.47" as="geometry" />
        </mxCell>
        <mxCell id="-l9Mk85zTir52LxoKMyz-409" style="edgeStyle=orthogonalEdgeStyle;rounded=0;orthogonalLoop=1;jettySize=auto;html=1;fontSize=18;" edge="1" parent="1" target="-l9Mk85zTir52LxoKMyz-482">
          <mxGeometry relative="1" as="geometry">
            <mxPoint x="1541.6499999999996" y="1836.2037037037035" as="sourcePoint" />
            <mxPoint x="1564.96" y="1836.15411" as="targetPoint" />
            <Array as="points">
              <mxPoint x="1541.4" y="1838" />
            </Array>
          </mxGeometry>
        </mxCell>
        <mxCell id="-l9Mk85zTir52LxoKMyz-410" value="$$x_0^2$$" style="shape=cylinder3;whiteSpace=wrap;html=1;boundedLbl=1;backgroundOutline=1;size=15;labelBorderColor=none;strokeColor=#9673a6;fillColor=#e1d5e7;gradientDirection=south;" vertex="1" parent="1">
          <mxGeometry x="1481.65" y="1798.03" width="60" height="53.47" as="geometry" />
        </mxCell>
        <mxCell id="-l9Mk85zTir52LxoKMyz-411" style="edgeStyle=orthogonalEdgeStyle;rounded=0;orthogonalLoop=1;jettySize=auto;html=1;fontSize=9;fontColor=#1A1A1A;startArrow=none;startFill=0;endArrow=none;endFill=0;" edge="1" parent="1" source="-l9Mk85zTir52LxoKMyz-412">
          <mxGeometry relative="1" as="geometry">
            <mxPoint x="1079.4" y="1838" as="targetPoint" />
          </mxGeometry>
        </mxCell>
        <mxCell id="-l9Mk85zTir52LxoKMyz-412" value="" style="ellipse;whiteSpace=wrap;html=1;aspect=fixed;labelBorderColor=none;fillColor=#dae8fc;strokeColor=#6c8ebf;" vertex="1" parent="1">
          <mxGeometry x="931.8599999999999" y="1844.5" width="123.5" height="123.5" as="geometry" />
        </mxCell>
        <mxCell id="-l9Mk85zTir52LxoKMyz-413" value="" style="ellipse;whiteSpace=wrap;html=1;aspect=fixed;labelBorderColor=none;gradientDirection=south;fillColor=#fff2cc;strokeColor=#d6b656;" vertex="1" parent="1">
          <mxGeometry x="942.1099999999999" y="1909.1" width="41.4" height="41.4" as="geometry" />
        </mxCell>
        <mxCell id="-l9Mk85zTir52LxoKMyz-414" value="" style="rounded=0;whiteSpace=wrap;html=1;strokeColor=default;fontFamily=Helvetica;fontSize=14;fontColor=default;fillColor=default;" vertex="1" parent="1">
          <mxGeometry x="833.7700000000001" y="1760.87" width="92.5" height="51.5" as="geometry" />
        </mxCell>
        <mxCell id="-l9Mk85zTir52LxoKMyz-415" value="" style="rounded=0;whiteSpace=wrap;html=1;strokeColor=default;fontFamily=Helvetica;fontSize=14;fontColor=default;fillColor=default;" vertex="1" parent="1">
          <mxGeometry x="822.7700000000001" y="1752.31" width="92.5" height="51.5" as="geometry" />
        </mxCell>
        <mxCell id="-l9Mk85zTir52LxoKMyz-416" value="" style="rounded=0;whiteSpace=wrap;html=1;strokeColor=default;fontFamily=Helvetica;fontSize=14;fontColor=default;fillColor=default;" vertex="1" parent="1">
          <mxGeometry x="813.84" y="1742.87" width="92.5" height="51.5" as="geometry" />
        </mxCell>
        <mxCell id="-l9Mk85zTir52LxoKMyz-417" value="" style="rounded=0;whiteSpace=wrap;html=1;labelBorderColor=none;strokeColor=default;gradientColor=none;dashed=1;" vertex="1" parent="1">
          <mxGeometry x="1143.4" y="1738" width="250" height="190" as="geometry" />
        </mxCell>
        <mxCell id="-l9Mk85zTir52LxoKMyz-418" style="edgeStyle=orthogonalEdgeStyle;rounded=0;orthogonalLoop=1;jettySize=auto;html=1;exitX=1;exitY=0.5;exitDx=0;exitDy=0;entryX=0;entryY=0.5;entryDx=0;entryDy=0;" edge="1" parent="1" source="-l9Mk85zTir52LxoKMyz-419" target="-l9Mk85zTir52LxoKMyz-422">
          <mxGeometry relative="1" as="geometry" />
        </mxCell>
        <mxCell id="-l9Mk85zTir52LxoKMyz-419" value="" style="rounded=0;whiteSpace=wrap;html=1;" vertex="1" parent="1">
          <mxGeometry x="1172.38" y="1823" width="50" height="30" as="geometry" />
        </mxCell>
        <mxCell id="-l9Mk85zTir52LxoKMyz-420" value="$$fusion$$" style="text;html=1;align=center;verticalAlign=middle;resizable=0;points=[];autosize=1;strokeColor=none;fillColor=none;fontSize=12;fontFamily=Helvetica;fontColor=default;" vertex="1" parent="1">
          <mxGeometry x="1157.38" y="1823" width="80" height="30" as="geometry" />
        </mxCell>
        <mxCell id="-l9Mk85zTir52LxoKMyz-421" style="edgeStyle=orthogonalEdgeStyle;rounded=0;orthogonalLoop=1;jettySize=auto;html=1;fontSize=18;entryX=0.001;entryY=0.004;entryDx=0;entryDy=0;entryPerimeter=0;" edge="1" parent="1" source="-l9Mk85zTir52LxoKMyz-422" target="-l9Mk85zTir52LxoKMyz-486">
          <mxGeometry relative="1" as="geometry">
            <mxPoint x="1333.4" y="1838" as="targetPoint" />
            <Array as="points">
              <mxPoint x="1323.4" y="1838" />
              <mxPoint x="1323.4" y="1838" />
            </Array>
          </mxGeometry>
        </mxCell>
        <mxCell id="-l9Mk85zTir52LxoKMyz-422" value="$$U-Net$$" style="rounded=1;whiteSpace=wrap;html=1;strokeColor=#b85450;fontFamily=Helvetica;fontSize=12;fillColor=#f8cecc;" vertex="1" parent="1">
          <mxGeometry x="1253.4" y="1793" width="59.86" height="90" as="geometry" />
        </mxCell>
        <mxCell id="-l9Mk85zTir52LxoKMyz-423" value="&lt;font style=&quot;font-size: 14px;&quot;&gt;$$x_{T-1}^1$$&lt;/font&gt;" style="rounded=0;whiteSpace=wrap;html=1;strokeColor=#9673a6;fontFamily=Helvetica;fontSize=12;fillColor=#e1d5e7;" vertex="1" parent="1">
          <mxGeometry x="1335.26" y="1758" width="36" height="40" as="geometry" />
        </mxCell>
        <mxCell id="-l9Mk85zTir52LxoKMyz-424" value="" style="endArrow=classic;startArrow=classic;html=1;rounded=0;fontFamily=Helvetica;fontSize=12;fontColor=default;" edge="1" parent="1">
          <mxGeometry width="50" height="50" relative="1" as="geometry">
            <mxPoint x="1836.5900000000006" y="1801.87" as="sourcePoint" />
            <mxPoint x="1936.0900000000006" y="1802.12" as="targetPoint" />
          </mxGeometry>
        </mxCell>
        <mxCell id="-l9Mk85zTir52LxoKMyz-425" value="" style="endArrow=classic;startArrow=classic;html=1;rounded=0;fontFamily=Helvetica;fontSize=12;fontColor=default;" edge="1" parent="1">
          <mxGeometry width="50" height="50" relative="1" as="geometry">
            <mxPoint x="1826.0900000000006" y="1855.12" as="sourcePoint" />
            <mxPoint x="1826.0900000000006" y="1812.37" as="targetPoint" />
          </mxGeometry>
        </mxCell>
        <mxCell id="-l9Mk85zTir52LxoKMyz-426" value="&lt;font style=&quot;font-size: 12px;&quot;&gt;$$Genes$$&lt;/font&gt;" style="text;html=1;align=center;verticalAlign=middle;resizable=0;points=[];autosize=1;strokeColor=none;fillColor=none;fontSize=12;fontFamily=Helvetica;fontColor=default;" vertex="1" parent="1">
          <mxGeometry x="1839.0900000000001" y="1774.37" width="90" height="30" as="geometry" />
        </mxCell>
        <mxCell id="-l9Mk85zTir52LxoKMyz-427" value="&lt;font style=&quot;font-size: 12px;&quot;&gt;$$Cells$$&lt;/font&gt;" style="text;html=1;align=center;verticalAlign=middle;resizable=0;points=[];autosize=1;strokeColor=none;fillColor=none;fontSize=10;fontFamily=Helvetica;fontColor=default;horizontal=0;" vertex="1" parent="1">
          <mxGeometry x="1791.0900000000001" y="1799.12" width="40" height="70" as="geometry" />
        </mxCell>
        <mxCell id="-l9Mk85zTir52LxoKMyz-428" value="&lt;div&gt;&lt;font style=&quot;font-size: 12px;&quot;&gt;$$Gaussion$$&lt;/font&gt;&lt;/div&gt;&lt;div&gt;&lt;font style=&quot;font-size: 12px;&quot;&gt;$$Noise$$&lt;/font&gt;&lt;/div&gt;" style="rounded=0;whiteSpace=wrap;html=1;strokeColor=default;fontFamily=Helvetica;fontSize=14;fontColor=default;fillColor=default;" vertex="1" parent="1">
          <mxGeometry x="803.19" y="1732.31" width="92.5" height="51.5" as="geometry" />
        </mxCell>
        <mxCell id="-l9Mk85zTir52LxoKMyz-429" style="edgeStyle=orthogonalEdgeStyle;rounded=0;orthogonalLoop=1;jettySize=auto;html=1;exitX=0;exitY=0.5;exitDx=0;exitDy=0;fontSize=14;" edge="1" parent="1">
          <mxGeometry relative="1" as="geometry">
            <mxPoint x="1799.4" y="1831" as="targetPoint" />
            <mxPoint x="1712.5900000000001" y="1830.56" as="sourcePoint" />
            <Array as="points">
              <mxPoint x="1756.4" y="1831" />
              <mxPoint x="1799.4" y="1831" />
            </Array>
          </mxGeometry>
        </mxCell>
        <mxCell id="-l9Mk85zTir52LxoKMyz-430" value="$$x_T$$" style="text;html=1;align=center;verticalAlign=middle;resizable=0;points=[];autosize=1;strokeColor=none;fillColor=none;fontSize=14;fontFamily=Helvetica;fontColor=default;" vertex="1" parent="1">
          <mxGeometry x="736.27" y="1753.62" width="80" height="30" as="geometry" />
        </mxCell>
        <mxCell id="-l9Mk85zTir52LxoKMyz-431" value="" style="endArrow=classic;startArrow=classic;html=1;rounded=0;fontFamily=Helvetica;fontSize=12;fontColor=default;" edge="1" parent="1">
          <mxGeometry width="50" height="50" relative="1" as="geometry">
            <mxPoint x="767.2699999999999" y="1868.7799999999997" as="sourcePoint" />
            <mxPoint x="867.2699999999999" y="1868.7799999999997" as="targetPoint" />
          </mxGeometry>
        </mxCell>
        <mxCell id="-l9Mk85zTir52LxoKMyz-432" value="" style="endArrow=classic;startArrow=classic;html=1;rounded=0;fontFamily=Helvetica;fontSize=12;fontColor=default;" edge="1" parent="1">
          <mxGeometry width="50" height="50" relative="1" as="geometry">
            <mxPoint x="758.2699999999999" y="1932" as="sourcePoint" />
            <mxPoint x="758.2699999999999" y="1877" as="targetPoint" />
          </mxGeometry>
        </mxCell>
        <mxCell id="-l9Mk85zTir52LxoKMyz-433" value="&lt;font style=&quot;font-size: 12px;&quot;&gt;$$Cells$$&lt;/font&gt;" style="text;html=1;align=center;verticalAlign=middle;resizable=0;points=[];autosize=1;strokeColor=none;fillColor=none;fontSize=10;fontFamily=Helvetica;fontColor=default;horizontal=0;" vertex="1" parent="1">
          <mxGeometry x="723.2700000000001" y="1870.9999999999998" width="40" height="70" as="geometry" />
        </mxCell>
        <mxCell id="-l9Mk85zTir52LxoKMyz-434" value="&lt;font style=&quot;font-size: 12px;&quot;&gt;$$Genes$$&lt;/font&gt;" style="text;html=1;align=center;verticalAlign=middle;resizable=0;points=[];autosize=1;strokeColor=none;fillColor=none;fontSize=12;fontFamily=Helvetica;fontColor=default;" vertex="1" parent="1">
          <mxGeometry x="772.2700000000001" y="1838.4999999999998" width="90" height="30" as="geometry" />
        </mxCell>
        <mxCell id="-l9Mk85zTir52LxoKMyz-435" value="&lt;font style=&quot;font-size: 9px;&quot;&gt;$$class\_1$$&lt;/font&gt;" style="text;html=1;align=center;verticalAlign=middle;resizable=0;points=[];autosize=1;strokeColor=none;fillColor=none;fontSize=14;fontFamily=Helvetica;fontColor=default;" vertex="1" parent="1">
          <mxGeometry x="922.3399999999999" y="1913.0799999999997" width="80" height="30" as="geometry" />
        </mxCell>
        <mxCell id="-l9Mk85zTir52LxoKMyz-436" value="&lt;font style=&quot;font-size: 18px;&quot;&gt;&lt;b&gt;$$(b).Diffusion\ Processing$$&lt;/b&gt;&lt;/font&gt;" style="text;html=1;align=center;verticalAlign=middle;resizable=0;points=[];autosize=1;strokeColor=none;fillColor=none;" vertex="1" parent="1">
          <mxGeometry x="1128.4" y="1668" width="280" height="40" as="geometry" />
        </mxCell>
        <mxCell id="-l9Mk85zTir52LxoKMyz-437" value="&lt;font style=&quot;font-size: 18px;&quot;&gt;&lt;b&gt;$$(c).Post-Guidance\ Mechanism$$&lt;/b&gt;&lt;/font&gt;" style="text;html=1;align=center;verticalAlign=middle;resizable=0;points=[];autosize=1;strokeColor=none;fillColor=none;" vertex="1" parent="1">
          <mxGeometry x="1439.7399999999998" y="1668" width="330" height="40" as="geometry" />
        </mxCell>
        <mxCell id="-l9Mk85zTir52LxoKMyz-438" style="edgeStyle=orthogonalEdgeStyle;rounded=0;orthogonalLoop=1;jettySize=auto;html=1;exitX=1;exitY=0.5;exitDx=0;exitDy=0;exitPerimeter=0;fontSize=14;entryX=0;entryY=0.5;entryDx=0;entryDy=0;" edge="1" parent="1" target="-l9Mk85zTir52LxoKMyz-478">
          <mxGeometry relative="1" as="geometry">
            <mxPoint x="1674.4" y="1830.67" as="targetPoint" />
            <mxPoint x="1640.3099999999995" y="1830.5" as="sourcePoint" />
          </mxGeometry>
        </mxCell>
        <mxCell id="-l9Mk85zTir52LxoKMyz-439" value="&lt;font style=&quot;font-size: 9px;&quot;&gt;&lt;b&gt;&lt;font style=&quot;font-size: 9px;&quot;&gt;$$×(T-1)$$&lt;/font&gt;&lt;/b&gt;&lt;/font&gt;" style="text;html=1;align=center;verticalAlign=middle;resizable=0;points=[];autosize=1;strokeColor=none;fillColor=none;" vertex="1" parent="1">
          <mxGeometry x="1387.7399999999998" y="1758" width="70" height="30" as="geometry" />
        </mxCell>
        <mxCell id="-l9Mk85zTir52LxoKMyz-440" value="" style="shape=partialRectangle;html=1;whiteSpace=wrap;connectable=0;overflow=hidden;top=0;left=0;bottom=0;right=0;pointerEvents=1;rounded=1;fontFamily=Helvetica;fontSize=12;fillColor=#00CC66;" vertex="1" parent="1">
          <mxGeometry x="829.9600000000002" y="1877.4999999999998" width="19" height="15" as="geometry">
            <mxRectangle width="19" height="15" as="alternateBounds" />
          </mxGeometry>
        </mxCell>
        <mxCell id="-l9Mk85zTir52LxoKMyz-441" value="" style="shape=partialRectangle;html=1;whiteSpace=wrap;connectable=0;overflow=hidden;fillColor=#00331A;top=0;left=0;bottom=0;right=0;pointerEvents=1;rounded=1;strokeColor=default;fontFamily=Helvetica;fontSize=12;fontColor=default;" vertex="1" parent="1">
          <mxGeometry x="848.9600000000002" y="1877.4999999999998" width="18" height="15" as="geometry">
            <mxRectangle width="18" height="15" as="alternateBounds" />
          </mxGeometry>
        </mxCell>
        <mxCell id="-l9Mk85zTir52LxoKMyz-442" value="" style="shape=partialRectangle;html=1;whiteSpace=wrap;connectable=0;overflow=hidden;fillColor=#009900;top=0;left=0;bottom=0;right=0;pointerEvents=1;rounded=1;strokeColor=default;fontFamily=Helvetica;fontSize=12;fontColor=default;" vertex="1" parent="1">
          <mxGeometry x="829.9600000000002" y="1892.4999999999998" width="19" height="13" as="geometry">
            <mxRectangle width="19" height="13" as="alternateBounds" />
          </mxGeometry>
        </mxCell>
        <mxCell id="-l9Mk85zTir52LxoKMyz-443" value="" style="shape=partialRectangle;html=1;whiteSpace=wrap;connectable=0;overflow=hidden;fillColor=#00CC66;top=0;left=0;bottom=0;right=0;pointerEvents=1;rounded=1;strokeColor=default;fontFamily=Helvetica;fontSize=12;fontColor=default;" vertex="1" parent="1">
          <mxGeometry x="848.9600000000002" y="1892.4999999999998" width="18" height="13" as="geometry">
            <mxRectangle width="18" height="13" as="alternateBounds" />
          </mxGeometry>
        </mxCell>
        <mxCell id="-l9Mk85zTir52LxoKMyz-444" value="" style="shape=partialRectangle;html=1;whiteSpace=wrap;connectable=0;overflow=hidden;fillColor=#009900;top=0;left=0;bottom=0;right=0;pointerEvents=1;rounded=1;strokeColor=default;fontFamily=Helvetica;fontSize=12;fontColor=default;" vertex="1" parent="1">
          <mxGeometry x="829.9600000000002" y="1905.4999999999998" width="19" height="15" as="geometry">
            <mxRectangle width="19" height="15" as="alternateBounds" />
          </mxGeometry>
        </mxCell>
        <mxCell id="-l9Mk85zTir52LxoKMyz-445" value="" style="shape=partialRectangle;html=1;whiteSpace=wrap;connectable=0;overflow=hidden;fillColor=#003300;top=0;left=0;bottom=0;right=0;pointerEvents=1;rounded=1;strokeColor=default;fontFamily=Helvetica;fontSize=12;fontColor=default;" vertex="1" parent="1">
          <mxGeometry x="848.9600000000002" y="1905.4999999999998" width="18" height="15" as="geometry">
            <mxRectangle width="18" height="15" as="alternateBounds" />
          </mxGeometry>
        </mxCell>
        <mxCell id="-l9Mk85zTir52LxoKMyz-446" value="" style="shape=partialRectangle;html=1;whiteSpace=wrap;connectable=0;overflow=hidden;top=0;left=0;bottom=0;right=0;pointerEvents=1;rounded=1;fontFamily=Helvetica;fontSize=12;fillColor=#00331A;" vertex="1" parent="1">
          <mxGeometry x="829.9600000000002" y="1920.4999999999998" width="19" height="12" as="geometry">
            <mxRectangle width="19" height="12" as="alternateBounds" />
          </mxGeometry>
        </mxCell>
        <mxCell id="-l9Mk85zTir52LxoKMyz-447" value="" style="shape=partialRectangle;html=1;whiteSpace=wrap;connectable=0;overflow=hidden;fillColor=#009900;top=0;left=0;bottom=0;right=0;pointerEvents=1;rounded=1;strokeColor=default;fontFamily=Helvetica;fontSize=12;fontColor=default;" vertex="1" parent="1">
          <mxGeometry x="848.9600000000002" y="1920.4999999999998" width="18" height="12" as="geometry">
            <mxRectangle width="18" height="12" as="alternateBounds" />
          </mxGeometry>
        </mxCell>
        <mxCell id="-l9Mk85zTir52LxoKMyz-448" value="" style="shape=partialRectangle;html=1;whiteSpace=wrap;connectable=0;overflow=hidden;fillColor=#003300;top=0;left=0;bottom=0;right=0;pointerEvents=1;rounded=1;strokeColor=default;fontFamily=Helvetica;fontSize=12;fontColor=default;" vertex="1" parent="1">
          <mxGeometry x="767.2700000000001" y="1877.4999999999998" width="18" height="15" as="geometry">
            <mxRectangle width="18" height="15" as="alternateBounds" />
          </mxGeometry>
        </mxCell>
        <mxCell id="-l9Mk85zTir52LxoKMyz-449" value="" style="shape=partialRectangle;html=1;whiteSpace=wrap;connectable=0;overflow=hidden;top=0;left=0;bottom=0;right=0;pointerEvents=1;rounded=1;fontFamily=Helvetica;fontSize=12;fillColor=#006600;" vertex="1" parent="1">
          <mxGeometry x="785.2700000000001" y="1877.4999999999998" width="20" height="15" as="geometry">
            <mxRectangle width="20" height="15" as="alternateBounds" />
          </mxGeometry>
        </mxCell>
        <mxCell id="-l9Mk85zTir52LxoKMyz-450" value="" style="shape=partialRectangle;html=1;whiteSpace=wrap;connectable=0;overflow=hidden;fillColor=#009900;top=0;left=0;bottom=0;right=0;pointerEvents=1;rounded=1;strokeColor=default;fontFamily=Helvetica;fontSize=12;fontColor=default;" vertex="1" parent="1">
          <mxGeometry x="767.2700000000001" y="1892.4999999999998" width="18" height="13" as="geometry">
            <mxRectangle width="18" height="13" as="alternateBounds" />
          </mxGeometry>
        </mxCell>
        <mxCell id="-l9Mk85zTir52LxoKMyz-451" value="" style="shape=partialRectangle;html=1;whiteSpace=wrap;connectable=0;overflow=hidden;fillColor=#00331A;top=0;left=0;bottom=0;right=0;pointerEvents=1;rounded=1;strokeColor=default;fontFamily=Helvetica;fontSize=12;fontColor=default;" vertex="1" parent="1">
          <mxGeometry x="785.2700000000001" y="1892.4999999999998" width="20" height="13" as="geometry">
            <mxRectangle width="20" height="13" as="alternateBounds" />
          </mxGeometry>
        </mxCell>
        <mxCell id="-l9Mk85zTir52LxoKMyz-452" value="" style="shape=partialRectangle;html=1;whiteSpace=wrap;connectable=0;overflow=hidden;fillColor=#003300;top=0;left=0;bottom=0;right=0;pointerEvents=1;rounded=1;strokeColor=#003300;fontFamily=Helvetica;fontSize=12;fontColor=default;" vertex="1" parent="1">
          <mxGeometry x="767.2700000000001" y="1905.4999999999998" width="18" height="15" as="geometry">
            <mxRectangle width="18" height="15" as="alternateBounds" />
          </mxGeometry>
        </mxCell>
        <mxCell id="-l9Mk85zTir52LxoKMyz-453" value="" style="shape=partialRectangle;html=1;whiteSpace=wrap;connectable=0;overflow=hidden;fillColor=#66CC00;top=0;left=0;bottom=0;right=0;pointerEvents=1;rounded=1;strokeColor=default;fontFamily=Helvetica;fontSize=12;fontColor=default;" vertex="1" parent="1">
          <mxGeometry x="785.2700000000001" y="1905.4999999999998" width="20" height="15" as="geometry">
            <mxRectangle width="20" height="15" as="alternateBounds" />
          </mxGeometry>
        </mxCell>
        <mxCell id="-l9Mk85zTir52LxoKMyz-454" value="" style="shape=partialRectangle;html=1;whiteSpace=wrap;connectable=0;overflow=hidden;fillColor=#009900;top=0;left=0;bottom=0;right=0;pointerEvents=1;rounded=1;strokeColor=default;fontFamily=Helvetica;fontSize=12;fontColor=default;" vertex="1" parent="1">
          <mxGeometry x="767.2700000000001" y="1920.4999999999998" width="18" height="12" as="geometry">
            <mxRectangle width="18" height="12" as="alternateBounds" />
          </mxGeometry>
        </mxCell>
        <mxCell id="-l9Mk85zTir52LxoKMyz-455" value="" style="shape=partialRectangle;html=1;whiteSpace=wrap;connectable=0;overflow=hidden;fillColor=#006600;top=0;left=0;bottom=0;right=0;pointerEvents=1;rounded=1;strokeColor=default;fontFamily=Helvetica;fontSize=12;fontColor=default;" vertex="1" parent="1">
          <mxGeometry x="785.2700000000001" y="1920.4999999999998" width="20" height="12" as="geometry">
            <mxRectangle width="20" height="12" as="alternateBounds" />
          </mxGeometry>
        </mxCell>
        <mxCell id="-l9Mk85zTir52LxoKMyz-456" value="$$...$$" style="text;html=1;align=center;verticalAlign=middle;resizable=0;points=[];autosize=1;strokeColor=none;fillColor=none;" vertex="1" parent="1">
          <mxGeometry x="787.2700000000001" y="1864.4999999999998" width="60" height="30" as="geometry" />
        </mxCell>
        <mxCell id="-l9Mk85zTir52LxoKMyz-457" value="$$...$$" style="text;html=1;align=center;verticalAlign=middle;resizable=0;points=[];autosize=1;strokeColor=none;fillColor=none;" vertex="1" parent="1">
          <mxGeometry x="787.2700000000001" y="1879.4999999999998" width="60" height="30" as="geometry" />
        </mxCell>
        <mxCell id="-l9Mk85zTir52LxoKMyz-458" value="$$...$$" style="text;html=1;align=center;verticalAlign=middle;resizable=0;points=[];autosize=1;strokeColor=none;fillColor=none;" vertex="1" parent="1">
          <mxGeometry x="787.2700000000001" y="1893.4999999999998" width="60" height="30" as="geometry" />
        </mxCell>
        <mxCell id="-l9Mk85zTir52LxoKMyz-459" value="$$...$$" style="text;html=1;align=center;verticalAlign=middle;resizable=0;points=[];autosize=1;strokeColor=none;fillColor=none;" vertex="1" parent="1">
          <mxGeometry x="787.2700000000001" y="1909.4999999999998" width="60" height="30" as="geometry" />
        </mxCell>
        <mxCell id="-l9Mk85zTir52LxoKMyz-460" value="$$n$$" style="text;html=1;align=center;verticalAlign=middle;resizable=0;points=[];autosize=1;strokeColor=none;fillColor=none;" vertex="1" parent="1">
          <mxGeometry x="783.9600000000002" y="1948.9999999999998" width="60" height="30" as="geometry" />
        </mxCell>
        <mxCell id="-l9Mk85zTir52LxoKMyz-461" value="" style="shape=curlyBracket;whiteSpace=wrap;html=1;rounded=1;flipH=1;strokeColor=default;fontFamily=Helvetica;fontSize=14;fontColor=default;fillColor=default;rotation=90;" vertex="1" parent="1">
          <mxGeometry x="812.0600000000001" y="1892.8299999999997" width="10.69" height="98.16" as="geometry" />
        </mxCell>
        <mxCell id="-l9Mk85zTir52LxoKMyz-462" value="" style="shape=partialRectangle;html=1;whiteSpace=wrap;connectable=0;overflow=hidden;top=0;left=0;bottom=0;right=0;pointerEvents=1;rounded=1;fontFamily=Helvetica;fontSize=12;fillColor=#00331A;" vertex="1" parent="1">
          <mxGeometry x="1898.7800000000002" y="1812.37" width="19" height="15" as="geometry">
            <mxRectangle width="19" height="15" as="alternateBounds" />
          </mxGeometry>
        </mxCell>
        <mxCell id="-l9Mk85zTir52LxoKMyz-463" value="" style="shape=partialRectangle;html=1;whiteSpace=wrap;connectable=0;overflow=hidden;fillColor=#00CC66;top=0;left=0;bottom=0;right=0;pointerEvents=1;rounded=1;strokeColor=default;fontFamily=Helvetica;fontSize=12;fontColor=default;" vertex="1" parent="1">
          <mxGeometry x="1917.7800000000002" y="1812.37" width="18" height="15" as="geometry">
            <mxRectangle width="18" height="15" as="alternateBounds" />
          </mxGeometry>
        </mxCell>
        <mxCell id="-l9Mk85zTir52LxoKMyz-464" value="" style="shape=partialRectangle;html=1;whiteSpace=wrap;connectable=0;overflow=hidden;fillColor=#00CC00;top=0;left=0;bottom=0;right=0;pointerEvents=1;rounded=1;strokeColor=default;fontFamily=Helvetica;fontSize=12;fontColor=default;" vertex="1" parent="1">
          <mxGeometry x="1898.7800000000002" y="1827.37" width="19" height="13" as="geometry">
            <mxRectangle width="19" height="13" as="alternateBounds" />
          </mxGeometry>
        </mxCell>
        <mxCell id="-l9Mk85zTir52LxoKMyz-465" value="" style="shape=partialRectangle;html=1;whiteSpace=wrap;connectable=0;overflow=hidden;fillColor=#009900;top=0;left=0;bottom=0;right=0;pointerEvents=1;rounded=1;strokeColor=default;fontFamily=Helvetica;fontSize=12;fontColor=default;" vertex="1" parent="1">
          <mxGeometry x="1917.7800000000002" y="1827.37" width="18" height="13" as="geometry">
            <mxRectangle width="18" height="13" as="alternateBounds" />
          </mxGeometry>
        </mxCell>
        <mxCell id="-l9Mk85zTir52LxoKMyz-466" value="" style="shape=partialRectangle;html=1;whiteSpace=wrap;connectable=0;overflow=hidden;fillColor=#009900;top=0;left=0;bottom=0;right=0;pointerEvents=1;rounded=1;strokeColor=default;fontFamily=Helvetica;fontSize=12;fontColor=default;" vertex="1" parent="1">
          <mxGeometry x="1898.7800000000002" y="1840.37" width="19" height="15" as="geometry">
            <mxRectangle width="19" height="15" as="alternateBounds" />
          </mxGeometry>
        </mxCell>
        <mxCell id="-l9Mk85zTir52LxoKMyz-467" value="" style="shape=partialRectangle;html=1;whiteSpace=wrap;connectable=0;overflow=hidden;fillColor=#003300;top=0;left=0;bottom=0;right=0;pointerEvents=1;rounded=1;strokeColor=default;fontFamily=Helvetica;fontSize=12;fontColor=default;" vertex="1" parent="1">
          <mxGeometry x="1917.7800000000002" y="1840.37" width="18" height="15" as="geometry">
            <mxRectangle width="18" height="15" as="alternateBounds" />
          </mxGeometry>
        </mxCell>
        <mxCell id="-l9Mk85zTir52LxoKMyz-468" value="$$...$$" style="text;html=1;align=center;verticalAlign=middle;resizable=0;points=[];autosize=1;strokeColor=none;fillColor=none;" vertex="1" parent="1">
          <mxGeometry x="1856.0900000000001" y="1815" width="60" height="30" as="geometry" />
        </mxCell>
        <mxCell id="-l9Mk85zTir52LxoKMyz-469" value="$$...$$" style="text;html=1;align=center;verticalAlign=middle;resizable=0;points=[];autosize=1;strokeColor=none;fillColor=none;" vertex="1" parent="1">
          <mxGeometry x="1856.7400000000002" y="1828.75" width="60" height="30" as="geometry" />
        </mxCell>
        <mxCell id="-l9Mk85zTir52LxoKMyz-470" value="$$...$$" style="text;html=1;align=center;verticalAlign=middle;resizable=0;points=[];autosize=1;strokeColor=none;fillColor=none;" vertex="1" parent="1">
          <mxGeometry x="1856.7400000000002" y="1802" width="60" height="30" as="geometry" />
        </mxCell>
        <mxCell id="-l9Mk85zTir52LxoKMyz-471" value="$$queue$$" style="text;html=1;align=center;verticalAlign=middle;resizable=0;points=[];autosize=1;strokeColor=none;fillColor=none;" vertex="1" parent="1">
          <mxGeometry x="1471.65" y="1745" width="80" height="30" as="geometry" />
        </mxCell>
        <mxCell id="-l9Mk85zTir52LxoKMyz-472" value="" style="ellipse;whiteSpace=wrap;html=1;aspect=fixed;labelBorderColor=none;gradientDirection=south;fillColor=#f5f5f5;fontColor=#333333;strokeColor=#666666;" vertex="1" parent="1">
          <mxGeometry x="989.5899999999999" y="1910.5" width="40.5" height="40.5" as="geometry" />
        </mxCell>
        <mxCell id="-l9Mk85zTir52LxoKMyz-473" value="&lt;font style=&quot;font-size: 9px;&quot;&gt;$$class\_2$$&lt;/font&gt;" style="text;html=1;align=center;verticalAlign=middle;resizable=0;points=[];autosize=1;strokeColor=none;fillColor=none;fontSize=14;fontFamily=Helvetica;fontColor=default;" vertex="1" parent="1">
          <mxGeometry x="969.9899999999998" y="1914.4899999999998" width="80" height="30" as="geometry" />
        </mxCell>
        <mxCell id="-l9Mk85zTir52LxoKMyz-474" value="" style="ellipse;whiteSpace=wrap;html=1;aspect=fixed;labelBorderColor=none;gradientDirection=south;fillColor=#ffe6cc;strokeColor=#d79b00;" vertex="1" parent="1">
          <mxGeometry x="944.39" y="1860.5" width="42.5" height="42.5" as="geometry" />
        </mxCell>
        <mxCell id="-l9Mk85zTir52LxoKMyz-475" value="&lt;font style=&quot;font-size: 9px;&quot;&gt;$$class\_k$$&lt;/font&gt;" style="text;html=1;align=center;verticalAlign=middle;resizable=0;points=[];autosize=1;strokeColor=none;fillColor=none;fontSize=14;fontFamily=Helvetica;fontColor=default;" vertex="1" parent="1">
          <mxGeometry x="926.3399999999999" y="1864.3999999999999" width="80" height="30" as="geometry" />
        </mxCell>
        <mxCell id="-l9Mk85zTir52LxoKMyz-476" value="&lt;font style=&quot;font-size: 12px;&quot;&gt;$$...$$&lt;/font&gt;" style="text;html=1;align=center;verticalAlign=middle;resizable=0;points=[];autosize=1;strokeColor=none;fillColor=none;" vertex="1" parent="1">
          <mxGeometry x="959.3399999999999" y="1887.4899999999998" width="60" height="30" as="geometry" />
        </mxCell>
        <mxCell id="-l9Mk85zTir52LxoKMyz-477" value="&lt;font style=&quot;font-size: 9px;&quot;&gt;$$class\_global$$&lt;/font&gt;" style="text;html=1;align=center;verticalAlign=middle;resizable=0;points=[];autosize=1;strokeColor=none;fillColor=none;" vertex="1" parent="1">
          <mxGeometry x="971.72" y="1884.9999999999995" width="100" height="30" as="geometry" />
        </mxCell>
        <mxCell id="-l9Mk85zTir52LxoKMyz-478" value="$$Mapper$$" style="rounded=1;whiteSpace=wrap;html=1;labelBorderColor=none;strokeColor=#666666;fontSize=14;fillColor=#f5f5f5;gradientDirection=south;fontColor=#333333;" vertex="1" parent="1">
          <mxGeometry x="1664.5900000000001" y="1805.37" width="76.81" height="50" as="geometry" />
        </mxCell>
        <mxCell id="-l9Mk85zTir52LxoKMyz-479" value="$$x_0^1$$" style="shape=cylinder3;whiteSpace=wrap;html=1;boundedLbl=1;backgroundOutline=1;size=15;labelBorderColor=none;strokeColor=#9673a6;fillColor=#e1d5e7;gradientDirection=south;" vertex="1" parent="1">
          <mxGeometry x="1481.65" y="1775" width="60" height="53.47" as="geometry" />
        </mxCell>
        <mxCell id="-l9Mk85zTir52LxoKMyz-480" value="$$x_0^4$$" style="shape=cylinder3;whiteSpace=wrap;html=1;boundedLbl=1;backgroundOutline=1;size=15;labelBorderColor=none;strokeColor=#666666;fillColor=#CCCCCC;gradientDirection=south;fontColor=#333333;" vertex="1" parent="1">
          <mxGeometry x="1584.4" y="1843.53" width="60" height="53.47" as="geometry" />
        </mxCell>
        <mxCell id="-l9Mk85zTir52LxoKMyz-481" value="$$x_0^3$$" style="shape=cylinder3;whiteSpace=wrap;html=1;boundedLbl=1;backgroundOutline=1;size=15;labelBorderColor=none;strokeColor=#9673a6;fillColor=#e1d5e7;gradientDirection=south;" vertex="1" parent="1">
          <mxGeometry x="1584.4" y="1820.8400000000001" width="60" height="53.47" as="geometry" />
        </mxCell>
        <mxCell id="-l9Mk85zTir52LxoKMyz-482" value="$$x_0^2$$" style="shape=cylinder3;whiteSpace=wrap;html=1;boundedLbl=1;backgroundOutline=1;size=15;labelBorderColor=none;strokeColor=#9673a6;fillColor=#e1d5e7;gradientDirection=south;" vertex="1" parent="1">
          <mxGeometry x="1584.4" y="1798.03" width="60" height="53.47" as="geometry" />
        </mxCell>
        <mxCell id="-l9Mk85zTir52LxoKMyz-483" value="$$x_0^1$$" style="shape=cylinder3;whiteSpace=wrap;html=1;boundedLbl=1;backgroundOutline=1;size=15;labelBorderColor=none;strokeColor=#9673a6;fillColor=#e1d5e7;gradientDirection=south;" vertex="1" parent="1">
          <mxGeometry x="1584.4" y="1775" width="60" height="53.47" as="geometry" />
        </mxCell>
        <mxCell id="-l9Mk85zTir52LxoKMyz-484" value="&lt;font style=&quot;font-size: 14px;&quot;&gt;$$x_{T-1}^2$$&lt;/font&gt;" style="rounded=0;whiteSpace=wrap;html=1;strokeColor=#9673a6;fontFamily=Helvetica;fontSize=12;fillColor=#e1d5e7;" vertex="1" parent="1">
          <mxGeometry x="1335.26" y="1798" width="36" height="40" as="geometry" />
        </mxCell>
        <mxCell id="-l9Mk85zTir52LxoKMyz-485" style="edgeStyle=orthogonalEdgeStyle;rounded=0;orthogonalLoop=1;jettySize=auto;html=1;exitX=1;exitY=0;exitDx=0;exitDy=0;dashed=1;dashPattern=1 1;" edge="1" parent="1" source="-l9Mk85zTir52LxoKMyz-486">
          <mxGeometry relative="1" as="geometry">
            <mxPoint x="1113.4" y="1838" as="targetPoint" />
            <Array as="points">
              <mxPoint x="1423.4" y="1838" />
              <mxPoint x="1423.4" y="1718" />
              <mxPoint x="1113.4" y="1718" />
            </Array>
          </mxGeometry>
        </mxCell>
        <mxCell id="-l9Mk85zTir52LxoKMyz-486" value="&lt;font style=&quot;font-size: 14px;&quot;&gt;$$x_{T-1}^3$$&lt;/font&gt;" style="rounded=0;whiteSpace=wrap;html=1;strokeColor=#9673a6;fontFamily=Helvetica;fontSize=12;fillColor=#e1d5e7;" vertex="1" parent="1">
          <mxGeometry x="1335.26" y="1838" width="36" height="40" as="geometry" />
        </mxCell>
        <mxCell id="-l9Mk85zTir52LxoKMyz-487" value="&lt;font style=&quot;font-size: 14px;&quot;&gt;$$x_{T-1}^4$$&lt;/font&gt;" style="rounded=0;whiteSpace=wrap;html=1;strokeColor=#9673a6;fontFamily=Helvetica;fontSize=12;fillColor=#e1d5e7;" vertex="1" parent="1">
          <mxGeometry x="1335.26" y="1878" width="36" height="40" as="geometry" />
        </mxCell>
        <mxCell id="-l9Mk85zTir52LxoKMyz-488" style="edgeStyle=orthogonalEdgeStyle;rounded=0;orthogonalLoop=1;jettySize=auto;html=1;fontSize=18;entryX=-0.016;entryY=0.313;entryDx=0;entryDy=0;entryPerimeter=0;exitX=1;exitY=0;exitDx=0;exitDy=0;" edge="1" parent="1" source="-l9Mk85zTir52LxoKMyz-486" target="-l9Mk85zTir52LxoKMyz-408">
          <mxGeometry relative="1" as="geometry">
            <mxPoint x="1464.65" y="1838" as="targetPoint" />
            <mxPoint x="1329.4" y="1838" as="sourcePoint" />
            <Array as="points">
              <mxPoint x="1405.4" y="1838" />
            </Array>
          </mxGeometry>
        </mxCell>
        <mxCell id="-l9Mk85zTir52LxoKMyz-489" value="&lt;font style=&quot;font-size: 12px;&quot;&gt;$$sort$$&lt;/font&gt;" style="text;html=1;align=center;verticalAlign=middle;resizable=0;points=[];autosize=1;strokeColor=none;fillColor=none;fontSize=18;" vertex="1" parent="1">
          <mxGeometry x="1528.4" y="1805.37" width="70" height="40" as="geometry" />
        </mxCell>
        <mxCell id="-l9Mk85zTir52LxoKMyz-490" value="$$queue$$" style="text;html=1;align=center;verticalAlign=middle;resizable=0;points=[];autosize=1;strokeColor=none;fillColor=none;" vertex="1" parent="1">
          <mxGeometry x="1574.4" y="1745" width="80" height="30" as="geometry" />
        </mxCell>
        <mxCell id="-l9Mk85zTir52LxoKMyz-491" value="" style="shape=partialRectangle;html=1;whiteSpace=wrap;connectable=0;overflow=hidden;top=0;left=0;bottom=0;right=0;pointerEvents=1;rounded=1;fontFamily=Helvetica;fontSize=12;fillColor=#00CC66;" vertex="1" parent="1">
          <mxGeometry x="1835.7400000000002" y="1812.37" width="19" height="15" as="geometry">
            <mxRectangle width="19" height="15" as="alternateBounds" />
          </mxGeometry>
        </mxCell>
        <mxCell id="-l9Mk85zTir52LxoKMyz-492" value="" style="shape=partialRectangle;html=1;whiteSpace=wrap;connectable=0;overflow=hidden;fillColor=#009900;top=0;left=0;bottom=0;right=0;pointerEvents=1;rounded=1;strokeColor=default;fontFamily=Helvetica;fontSize=12;fontColor=default;" vertex="1" parent="1">
          <mxGeometry x="1854.7400000000002" y="1812.37" width="18" height="15" as="geometry">
            <mxRectangle width="18" height="15" as="alternateBounds" />
          </mxGeometry>
        </mxCell>
        <mxCell id="-l9Mk85zTir52LxoKMyz-493" value="" style="shape=partialRectangle;html=1;whiteSpace=wrap;connectable=0;overflow=hidden;fillColor=#003300;top=0;left=0;bottom=0;right=0;pointerEvents=1;rounded=1;strokeColor=default;fontFamily=Helvetica;fontSize=12;fontColor=default;" vertex="1" parent="1">
          <mxGeometry x="1835.7400000000002" y="1827.37" width="19" height="13" as="geometry">
            <mxRectangle width="19" height="13" as="alternateBounds" />
          </mxGeometry>
        </mxCell>
        <mxCell id="-l9Mk85zTir52LxoKMyz-494" value="" style="shape=partialRectangle;html=1;whiteSpace=wrap;connectable=0;overflow=hidden;fillColor=#00CC66;top=0;left=0;bottom=0;right=0;pointerEvents=1;rounded=1;strokeColor=default;fontFamily=Helvetica;fontSize=12;fontColor=default;" vertex="1" parent="1">
          <mxGeometry x="1854.7400000000002" y="1827.37" width="18" height="13" as="geometry">
            <mxRectangle width="18" height="13" as="alternateBounds" />
          </mxGeometry>
        </mxCell>
        <mxCell id="-l9Mk85zTir52LxoKMyz-495" value="" style="shape=partialRectangle;html=1;whiteSpace=wrap;connectable=0;overflow=hidden;fillColor=#009900;top=0;left=0;bottom=0;right=0;pointerEvents=1;rounded=1;strokeColor=default;fontFamily=Helvetica;fontSize=12;fontColor=default;" vertex="1" parent="1">
          <mxGeometry x="1835.7400000000002" y="1840.37" width="19" height="15" as="geometry">
            <mxRectangle width="19" height="15" as="alternateBounds" />
          </mxGeometry>
        </mxCell>
        <mxCell id="-l9Mk85zTir52LxoKMyz-496" value="" style="shape=partialRectangle;html=1;whiteSpace=wrap;connectable=0;overflow=hidden;fillColor=#003300;top=0;left=0;bottom=0;right=0;pointerEvents=1;rounded=1;strokeColor=default;fontFamily=Helvetica;fontSize=12;fontColor=default;" vertex="1" parent="1">
          <mxGeometry x="1854.7400000000002" y="1840.37" width="18" height="15" as="geometry">
            <mxRectangle width="18" height="15" as="alternateBounds" />
          </mxGeometry>
        </mxCell>
        <mxCell id="-l9Mk85zTir52LxoKMyz-497" value="" style="endArrow=classic;html=1;rounded=0;fontSize=10;fontColor=#1A1A1A;" edge="1" parent="1">
          <mxGeometry width="50" height="50" relative="1" as="geometry">
            <mxPoint x="876.5800000000003" y="1906.5" as="sourcePoint" />
            <mxPoint x="926.2699999999994" y="1906.5" as="targetPoint" />
          </mxGeometry>
        </mxCell>
        <mxCell id="-l9Mk85zTir52LxoKMyz-498" value="&lt;font style=&quot;font-size: 18px;&quot;&gt;&lt;b&gt;$$(a).Pre-Guidance\ Mechanism$$&lt;/b&gt;&lt;/font&gt;" style="text;html=1;align=center;verticalAlign=middle;resizable=0;points=[];autosize=1;strokeColor=none;fillColor=none;" vertex="1" parent="1">
          <mxGeometry x="753.3299999999999" y="1668" width="320" height="40" as="geometry" />
        </mxCell>
        <mxCell id="-l9Mk85zTir52LxoKMyz-499" style="edgeStyle=orthogonalEdgeStyle;rounded=0;orthogonalLoop=1;jettySize=auto;html=1;fontSize=9;fontColor=#1A1A1A;startArrow=none;startFill=0;endArrow=classic;endFill=1;" edge="1" parent="1">
          <mxGeometry relative="1" as="geometry">
            <mxPoint x="929.4" y="1778" as="sourcePoint" />
            <mxPoint x="1171.7200000000003" y="1837.63" as="targetPoint" />
            <Array as="points">
              <mxPoint x="929.4" y="1778" />
              <mxPoint x="1079.4" y="1778" />
              <mxPoint x="1079.4" y="1838" />
            </Array>
          </mxGeometry>
        </mxCell>
        <mxCell id="-l9Mk85zTir52LxoKMyz-500" value="" style="endArrow=classic;html=1;rounded=1;fontSize=34;fontColor=#1A1A1A;endSize=12;startSize=17;jumpSize=16;" edge="1" parent="1">
          <mxGeometry width="50" height="50" relative="1" as="geometry">
            <mxPoint x="1524.2399999999998" y="1522.5" as="sourcePoint" />
            <mxPoint x="1594.2399999999998" y="1522.5" as="targetPoint" />
          </mxGeometry>
        </mxCell>
        <mxCell id="-l9Mk85zTir52LxoKMyz-501" value="" style="endArrow=classic;html=1;rounded=1;fontSize=34;fontColor=#1A1A1A;endSize=12;startSize=17;jumpSize=16;" edge="1" parent="1">
          <mxGeometry width="50" height="50" relative="1" as="geometry">
            <mxPoint x="1164.9" y="1522.5" as="sourcePoint" />
            <mxPoint x="1234.9" y="1522.5" as="targetPoint" />
          </mxGeometry>
        </mxCell>
        <mxCell id="-l9Mk85zTir52LxoKMyz-502" value="" style="curved=1;endArrow=classic;html=1;rounded=1;fontSize=34;fontColor=#1A1A1A;startSize=17;endSize=12;jumpSize=16;" edge="1" parent="1">
          <mxGeometry width="50" height="50" relative="1" as="geometry">
            <mxPoint x="1237.8999999999996" y="1538" as="sourcePoint" />
            <mxPoint x="1157.8999999999996" y="1538" as="targetPoint" />
            <Array as="points">
              <mxPoint x="1207.9" y="1558" />
            </Array>
          </mxGeometry>
        </mxCell>
        <mxCell id="-l9Mk85zTir52LxoKMyz-503" value="&lt;font style=&quot;font-size: 25px;&quot;&gt;$$z_{(t)}$$&lt;/font&gt;" style="ellipse;whiteSpace=wrap;html=1;aspect=fixed;strokeColor=#1A1A1A;fontSize=9;fontColor=#1A1A1A;fillColor=#FFFFFF;" vertex="1" parent="1">
          <mxGeometry x="1077.9" y="1488" width="70" height="70" as="geometry" />
        </mxCell>
        <mxCell id="-l9Mk85zTir52LxoKMyz-504" value="&lt;font style=&quot;font-size: 25px;&quot;&gt;$$z_{(t-1)}$$&lt;/font&gt;" style="ellipse;whiteSpace=wrap;html=1;aspect=fixed;strokeColor=#1A1A1A;fontSize=9;fontColor=#1A1A1A;fillColor=#FFFFFF;" vertex="1" parent="1">
          <mxGeometry x="1257.9" y="1488" width="70" height="70" as="geometry" />
        </mxCell>
        <mxCell id="-l9Mk85zTir52LxoKMyz-505" value="&lt;font style=&quot;font-size: 25px;&quot;&gt;$$z_{(T)}$$&lt;/font&gt;" style="ellipse;whiteSpace=wrap;html=1;aspect=fixed;strokeColor=#1A1A1A;fontSize=9;fontColor=#1A1A1A;fillColor=#FFFFFF;" vertex="1" parent="1">
          <mxGeometry x="887.77" y="1488" width="70" height="70" as="geometry" />
        </mxCell>
        <mxCell id="-l9Mk85zTir52LxoKMyz-506" value="&lt;font style=&quot;font-size: 25px;&quot;&gt;$$z_{(0)}$$&lt;/font&gt;" style="ellipse;whiteSpace=wrap;html=1;aspect=fixed;strokeColor=#1A1A1A;fontSize=9;fontColor=#1A1A1A;fillColor=#FFFFFF;" vertex="1" parent="1">
          <mxGeometry x="1440.7600000000002" y="1488" width="70" height="70" as="geometry" />
        </mxCell>
        <mxCell id="-l9Mk85zTir52LxoKMyz-507" value="&lt;font style=&quot;font-size: 25px;&quot;&gt;$$x$$&lt;/font&gt;" style="ellipse;whiteSpace=wrap;html=1;aspect=fixed;strokeColor=#1A1A1A;fontSize=9;fontColor=#1A1A1A;fillColor=#D9D9D9;gradientColor=none;" vertex="1" parent="1">
          <mxGeometry x="1608.9" y="1488" width="70" height="70" as="geometry" />
        </mxCell>
        <mxCell id="-l9Mk85zTir52LxoKMyz-508" value="" style="endArrow=classic;html=1;rounded=1;fontSize=25;fontColor=#1A1A1A;startSize=17;endSize=12;jumpSize=16;" edge="1" parent="1">
          <mxGeometry width="50" height="50" relative="1" as="geometry">
            <mxPoint x="967.1899999999999" y="1522.6999999999998" as="sourcePoint" />
            <mxPoint x="1000.9" y="1522.6999999999998" as="targetPoint" />
          </mxGeometry>
        </mxCell>
        <mxCell id="-l9Mk85zTir52LxoKMyz-509" value="" style="endArrow=classic;html=1;rounded=1;fontSize=25;fontColor=#1A1A1A;startSize=17;endSize=12;jumpSize=16;" edge="1" parent="1">
          <mxGeometry width="50" height="50" relative="1" as="geometry">
            <mxPoint x="1035.3899999999999" y="1522.6999999999998" as="sourcePoint" />
            <mxPoint x="1069.1" y="1522.6999999999998" as="targetPoint" />
          </mxGeometry>
        </mxCell>
        <mxCell id="-l9Mk85zTir52LxoKMyz-510" value="..." style="text;html=1;align=center;verticalAlign=middle;resizable=0;points=[];autosize=1;strokeColor=none;fillColor=none;fontSize=25;fontColor=#1A1A1A;" vertex="1" parent="1">
          <mxGeometry x="998.09" y="1495" width="40" height="40" as="geometry" />
        </mxCell>
        <mxCell id="-l9Mk85zTir52LxoKMyz-511" value="" style="endArrow=classic;html=1;rounded=1;fontSize=25;fontColor=#1A1A1A;startSize=17;endSize=12;jumpSize=16;" edge="1" parent="1">
          <mxGeometry width="50" height="50" relative="1" as="geometry">
            <mxPoint x="1334.33" y="1522.6999999999998" as="sourcePoint" />
            <mxPoint x="1368.0400000000004" y="1522.6999999999998" as="targetPoint" />
          </mxGeometry>
        </mxCell>
        <mxCell id="-l9Mk85zTir52LxoKMyz-512" value="" style="endArrow=classic;html=1;rounded=1;fontSize=25;fontColor=#1A1A1A;startSize=17;endSize=12;jumpSize=16;" edge="1" parent="1">
          <mxGeometry width="50" height="50" relative="1" as="geometry">
            <mxPoint x="1402.5300000000007" y="1522.6999999999998" as="sourcePoint" />
            <mxPoint x="1436.2400000000002" y="1522.6999999999998" as="targetPoint" />
          </mxGeometry>
        </mxCell>
        <mxCell id="-l9Mk85zTir52LxoKMyz-513" value="..." style="text;html=1;align=center;verticalAlign=middle;resizable=0;points=[];autosize=1;strokeColor=none;fillColor=none;fontSize=25;fontColor=#1A1A1A;" vertex="1" parent="1">
          <mxGeometry x="1363.5" y="1495" width="40" height="40" as="geometry" />
        </mxCell>
        <mxCell id="-l9Mk85zTir52LxoKMyz-514" value="&lt;font style=&quot;font-size: 17px;&quot; color=&quot;#3399FF&quot;&gt;$$q(z_{(0)}|x,c)$$&lt;/font&gt;" style="text;html=1;align=center;verticalAlign=middle;resizable=0;points=[];autosize=1;strokeColor=none;fillColor=none;fontSize=25;fontColor=#1A1A1A;" vertex="1" parent="1">
          <mxGeometry x="1476.9" y="1558" width="160" height="40" as="geometry" />
        </mxCell>
        <mxCell id="-l9Mk85zTir52LxoKMyz-515" value="" style="curved=1;endArrow=classic;html=1;rounded=1;fontSize=34;fontColor=#1A1A1A;startSize=16;endSize=8;jumpSize=16;dashed=1;" edge="1" parent="1">
          <mxGeometry width="50" height="50" relative="1" as="geometry">
            <mxPoint x="3007.13" y="852.6899999999998" as="sourcePoint" />
            <mxPoint x="2945.5300000000007" y="851.6899999999994" as="targetPoint" />
            <Array as="points">
              <mxPoint x="2976.5300000000007" y="874.6899999999998" />
            </Array>
          </mxGeometry>
        </mxCell>
        <mxCell id="-l9Mk85zTir52LxoKMyz-516" value="&lt;font style=&quot;font-size: 17px;&quot;&gt;$$q(z_{(t)}|z_{t-1})$$&lt;/font&gt;" style="text;html=1;align=center;verticalAlign=middle;resizable=0;points=[];autosize=1;strokeColor=none;fillColor=none;fontSize=25;fontColor=#1A1A1A;" vertex="1" parent="1">
          <mxGeometry x="1105.88" y="1558" width="180" height="40" as="geometry" />
        </mxCell>
        <mxCell id="-l9Mk85zTir52LxoKMyz-517" value="&lt;font style=&quot;font-size: 20px;&quot;&gt;$$noising$$&lt;/font&gt;" style="text;html=1;align=center;verticalAlign=middle;resizable=0;points=[];autosize=1;strokeColor=none;fillColor=none;fontSize=20;fontColor=#1A1A1A;" vertex="1" parent="1">
          <mxGeometry x="1131.83" y="1598" width="130" height="40" as="geometry" />
        </mxCell>
        <mxCell id="-l9Mk85zTir52LxoKMyz-518" value="&lt;font style=&quot;font-size: 20px;&quot;&gt;$$denoising$$&lt;/font&gt;" style="text;html=1;align=center;verticalAlign=middle;resizable=0;points=[];autosize=1;strokeColor=none;fillColor=none;fontSize=20;fontColor=#1A1A1A;" vertex="1" parent="1">
          <mxGeometry x="1121.83" y="1428" width="150" height="40" as="geometry" />
        </mxCell>
        <mxCell id="-l9Mk85zTir52LxoKMyz-519" value="&lt;font style=&quot;font-size: 17px;&quot;&gt;$$p_\theta(z_{(t-1)}|z_{(t)})$$&lt;/font&gt;" style="text;html=1;align=center;verticalAlign=middle;resizable=0;points=[];autosize=1;strokeColor=none;fillColor=none;fontSize=20;fontColor=#1A1A1A;" vertex="1" parent="1">
          <mxGeometry x="1082.8400000000001" y="1468" width="240" height="40" as="geometry" />
        </mxCell>
        <mxCell id="-l9Mk85zTir52LxoKMyz-520" value="&lt;font style=&quot;font-size: 17px;&quot; color=&quot;#3399FF&quot;&gt;$$p_\theta(x|z_{(0)})$$&lt;/font&gt;" style="text;html=1;align=center;verticalAlign=middle;resizable=0;points=[];autosize=1;strokeColor=none;fillColor=none;fontSize=20;fontColor=#1A1A1A;" vertex="1" parent="1">
          <mxGeometry x="1460.15" y="1468" width="200" height="40" as="geometry" />
        </mxCell>
        <mxCell id="-l9Mk85zTir52LxoKMyz-521" value="&lt;font style=&quot;font-size: 20px;&quot; color=&quot;#3399FF&quot;&gt;$$Round$$&lt;/font&gt;" style="text;html=1;align=center;verticalAlign=middle;resizable=0;points=[];autosize=1;strokeColor=none;fillColor=none;fontSize=17;fontColor=#1A1A1A;" vertex="1" parent="1">
          <mxGeometry x="1491.9" y="1598" width="130" height="40" as="geometry" />
        </mxCell>
        <mxCell id="-l9Mk85zTir52LxoKMyz-522" value="&lt;font style=&quot;font-size: 20px;&quot; color=&quot;#3399FF&quot;&gt;$$Map$$&lt;/font&gt;" style="text;html=1;align=center;verticalAlign=middle;resizable=0;points=[];autosize=1;strokeColor=none;fillColor=none;fontSize=17;fontColor=#1A1A1A;" vertex="1" parent="1">
          <mxGeometry x="1501.9" y="1428" width="110" height="40" as="geometry" />
        </mxCell>
        <mxCell id="-l9Mk85zTir52LxoKMyz-523" style="edgeStyle=orthogonalEdgeStyle;rounded=1;jumpSize=16;orthogonalLoop=1;jettySize=auto;html=1;fontSize=20;fontColor=#3399FF;startArrow=none;startFill=0;endArrow=none;endFill=0;startSize=17;endSize=12;" edge="1" parent="1" source="-l9Mk85zTir52LxoKMyz-524">
          <mxGeometry relative="1" as="geometry">
            <mxPoint x="2630.4700000000003" y="839.6900000000003" as="targetPoint" />
          </mxGeometry>
        </mxCell>
        <mxCell id="-l9Mk85zTir52LxoKMyz-524" value="&lt;font style=&quot;font-size: 25px;&quot;&gt;$$x$$&lt;/font&gt;" style="ellipse;whiteSpace=wrap;html=1;aspect=fixed;strokeColor=#1A1A1A;fontSize=9;fontColor=#1A1A1A;fillColor=#D9D9D9;gradientColor=none;" vertex="1" parent="1">
          <mxGeometry x="2560" y="804.6899999999998" width="70" height="70" as="geometry" />
        </mxCell>
        <mxCell id="-l9Mk85zTir52LxoKMyz-525" style="edgeStyle=orthogonalEdgeStyle;rounded=0;jumpSize=16;orthogonalLoop=1;jettySize=auto;html=1;entryX=0;entryY=0.5;entryDx=0;entryDy=0;fontSize=20;fontColor=#000000;startArrow=none;startFill=0;endArrow=classic;endFill=1;startSize=17;endSize=12;exitX=1;exitY=0.5;exitDx=0;exitDy=0;" edge="1" parent="1" source="-l9Mk85zTir52LxoKMyz-527" target="-l9Mk85zTir52LxoKMyz-534">
          <mxGeometry relative="1" as="geometry">
            <Array as="points">
              <mxPoint x="2847.13" y="737.6899999999998" />
              <mxPoint x="2847.13" y="839.6899999999998" />
            </Array>
          </mxGeometry>
        </mxCell>
        <mxCell id="-l9Mk85zTir52LxoKMyz-526" style="edgeStyle=orthogonalEdgeStyle;rounded=0;jumpSize=16;orthogonalLoop=1;jettySize=auto;html=1;entryX=0.5;entryY=0;entryDx=0;entryDy=0;fontSize=15;fontColor=#000000;startArrow=none;startFill=0;endArrow=classic;endFill=1;startSize=16;endSize=8;" edge="1" parent="1" source="-l9Mk85zTir52LxoKMyz-527" target="-l9Mk85zTir52LxoKMyz-529">
          <mxGeometry relative="1" as="geometry" />
        </mxCell>
        <mxCell id="-l9Mk85zTir52LxoKMyz-527" value="&lt;font style=&quot;font-size: 25px;&quot;&gt;$$c$$&lt;/font&gt;" style="ellipse;whiteSpace=wrap;html=1;aspect=fixed;strokeColor=#1A1A1A;fontSize=9;fontColor=#1A1A1A;fillColor=#D9D9D9;gradientColor=none;" vertex="1" parent="1">
          <mxGeometry x="2731.0600000000004" y="702.6899999999998" width="70" height="70" as="geometry" />
        </mxCell>
        <mxCell id="-l9Mk85zTir52LxoKMyz-528" style="edgeStyle=orthogonalEdgeStyle;rounded=1;jumpSize=16;orthogonalLoop=1;jettySize=auto;html=1;entryX=0;entryY=0.5;entryDx=0;entryDy=0;fontSize=20;fontColor=#000000;startArrow=none;startFill=0;endArrow=classic;endFill=1;startSize=17;endSize=12;" edge="1" parent="1" source="-l9Mk85zTir52LxoKMyz-529" target="-l9Mk85zTir52LxoKMyz-534">
          <mxGeometry relative="1" as="geometry" />
        </mxCell>
        <mxCell id="-l9Mk85zTir52LxoKMyz-529" value="&lt;font style=&quot;font-size: 25px;&quot;&gt;$$z_{(0)}$$&lt;/font&gt;" style="ellipse;whiteSpace=wrap;html=1;aspect=fixed;strokeColor=#1A1A1A;fontSize=9;fontColor=#1A1A1A;fillColor=#FFFFFF;" vertex="1" parent="1">
          <mxGeometry x="2731.0600000000004" y="804.6899999999998" width="70" height="70" as="geometry" />
        </mxCell>
        <mxCell id="-l9Mk85zTir52LxoKMyz-530" value="" style="endArrow=classic;html=1;rounded=1;fontSize=25;fontColor=#1A1A1A;startSize=17;endSize=12;jumpSize=16;" edge="1" parent="1">
          <mxGeometry width="50" height="50" relative="1" as="geometry">
            <mxPoint x="2630.4099999999994" y="839.6900000000003" as="sourcePoint" />
            <mxPoint x="2730.4700000000003" y="839.6900000000003" as="targetPoint" />
          </mxGeometry>
        </mxCell>
        <mxCell id="-l9Mk85zTir52LxoKMyz-531" value="&lt;font style=&quot;font-size: 17px;&quot;&gt;$$q(z_{(0)}|x,c)$$&lt;/font&gt;" style="text;html=1;align=center;verticalAlign=middle;resizable=0;points=[];autosize=1;strokeColor=none;fillColor=none;fontSize=25;fontColor=#1A1A1A;" vertex="1" parent="1">
          <mxGeometry x="2604.07" y="782.6899999999998" width="160" height="40" as="geometry" />
        </mxCell>
        <mxCell id="-l9Mk85zTir52LxoKMyz-532" value="&lt;font style=&quot;font-size: 25px;&quot;&gt;$$z_{(t)}$$&lt;/font&gt;" style="ellipse;whiteSpace=wrap;html=1;aspect=fixed;strokeColor=#1A1A1A;fontSize=9;fontColor=#1A1A1A;fillColor=#FFFFFF;" vertex="1" parent="1">
          <mxGeometry x="3008.5600000000004" y="804.6899999999998" width="70" height="70" as="geometry" />
        </mxCell>
        <mxCell id="-l9Mk85zTir52LxoKMyz-533" style="edgeStyle=orthogonalEdgeStyle;rounded=1;jumpSize=16;orthogonalLoop=1;jettySize=auto;html=1;entryX=0;entryY=0.5;entryDx=0;entryDy=0;fontSize=20;fontColor=#000000;startArrow=none;startFill=0;endArrow=classic;endFill=1;startSize=17;endSize=12;" edge="1" parent="1" source="-l9Mk85zTir52LxoKMyz-534" target="-l9Mk85zTir52LxoKMyz-532">
          <mxGeometry relative="1" as="geometry" />
        </mxCell>
        <mxCell id="-l9Mk85zTir52LxoKMyz-534" value="&lt;font style=&quot;font-size: 25px;&quot;&gt;$$z_{(t-1)}$$&lt;/font&gt;" style="ellipse;whiteSpace=wrap;html=1;aspect=fixed;strokeColor=#1A1A1A;fontSize=9;fontColor=#1A1A1A;fillColor=#FFFFFF;" vertex="1" parent="1">
          <mxGeometry x="2875.5300000000007" y="804.6899999999998" width="70" height="70" as="geometry" />
        </mxCell>
        <mxCell id="-l9Mk85zTir52LxoKMyz-535" value="&lt;font style=&quot;font-size: 17px;&quot;&gt;$$t=2...T$$&lt;/font&gt;" style="text;html=1;align=center;verticalAlign=middle;resizable=0;points=[];autosize=1;strokeColor=none;fillColor=none;fontSize=20;fontColor=#000000;" vertex="1" parent="1">
          <mxGeometry x="2823.7" y="957.6899999999998" width="110" height="40" as="geometry" />
        </mxCell>
        <mxCell id="-l9Mk85zTir52LxoKMyz-536" value="&lt;font style=&quot;font-size: 17px;&quot;&gt;$$q(z_{(t)}|z_{t-1},c)$$&lt;/font&gt;" style="text;html=1;align=center;verticalAlign=middle;resizable=0;points=[];autosize=1;strokeColor=none;fillColor=none;fontSize=25;fontColor=#1A1A1A;" vertex="1" parent="1">
          <mxGeometry x="2888.5600000000004" y="772.6899999999998" width="190" height="40" as="geometry" />
        </mxCell>
        <mxCell id="-l9Mk85zTir52LxoKMyz-537" value="" style="curved=1;endArrow=classic;html=1;rounded=1;fontSize=34;fontColor=#1A1A1A;startSize=16;endSize=8;jumpSize=16;dashed=1;entryX=1.008;entryY=0.62;entryDx=0;entryDy=0;entryPerimeter=0;" edge="1" parent="1" target="-l9Mk85zTir52LxoKMyz-529">
          <mxGeometry width="50" height="50" relative="1" as="geometry">
            <mxPoint x="2875.5300000000007" y="852.6899999999998" as="sourcePoint" />
            <mxPoint x="2813.9300000000003" y="851.6899999999998" as="targetPoint" />
            <Array as="points">
              <mxPoint x="2837.13" y="874.6899999999998" />
            </Array>
          </mxGeometry>
        </mxCell>
        <mxCell id="-l9Mk85zTir52LxoKMyz-538" value="" style="curved=1;endArrow=classic;html=1;rounded=1;fontSize=34;fontColor=#1A1A1A;startSize=16;endSize=8;jumpSize=16;dashed=1;entryX=1.008;entryY=0.62;entryDx=0;entryDy=0;entryPerimeter=0;" edge="1" parent="1">
          <mxGeometry width="50" height="50" relative="1" as="geometry">
            <mxPoint x="2727.13" y="852.6899999999998" as="sourcePoint" />
            <mxPoint x="2630.3600000000006" y="848.0900000000004" as="targetPoint" />
            <Array as="points">
              <mxPoint x="2677.13" y="872.6899999999998" />
            </Array>
          </mxGeometry>
        </mxCell>
        <mxCell id="-l9Mk85zTir52LxoKMyz-539" value="&lt;font style=&quot;font-size: 15px;&quot;&gt;$$p_\theta(z_{(t-1)}|z_{(t)},c)$$&lt;/font&gt;" style="text;html=1;align=center;verticalAlign=middle;resizable=0;points=[];autosize=1;strokeColor=none;fillColor=none;fontSize=20;fontColor=#1A1A1A;" vertex="1" parent="1">
          <mxGeometry x="2866.0600000000004" y="874.6899999999998" width="230" height="40" as="geometry" />
        </mxCell>
        <mxCell id="-l9Mk85zTir52LxoKMyz-540" value="&lt;font style=&quot;font-size: 17px;&quot;&gt;$$p_\theta(x|z_{(0)})$$&lt;/font&gt;" style="text;html=1;align=center;verticalAlign=middle;resizable=0;points=[];autosize=1;strokeColor=none;fillColor=none;fontSize=20;fontColor=#1A1A1A;" vertex="1" parent="1">
          <mxGeometry x="2581.06" y="867.6899999999998" width="200" height="40" as="geometry" />
        </mxCell>
        <mxCell id="-l9Mk85zTir52LxoKMyz-541" style="edgeStyle=orthogonalEdgeStyle;rounded=0;jumpSize=16;orthogonalLoop=1;jettySize=auto;html=1;entryX=0.187;entryY=-0.047;entryDx=0;entryDy=0;entryPerimeter=0;fontSize=15;fontColor=#000000;startArrow=none;startFill=0;endArrow=classic;endFill=1;startSize=16;endSize=8;exitX=0;exitY=0.5;exitDx=0;exitDy=0;dashed=1;" edge="1" parent="1" source="-l9Mk85zTir52LxoKMyz-543" target="-l9Mk85zTir52LxoKMyz-539">
          <mxGeometry relative="1" as="geometry">
            <Array as="points">
              <mxPoint x="2909.13" y="942.6899999999998" />
            </Array>
          </mxGeometry>
        </mxCell>
        <mxCell id="-l9Mk85zTir52LxoKMyz-542" style="edgeStyle=orthogonalEdgeStyle;rounded=0;jumpSize=16;orthogonalLoop=1;jettySize=auto;html=1;entryX=0.93;entryY=0.125;entryDx=0;entryDy=0;entryPerimeter=0;dashed=1;fontSize=15;fontColor=#000000;startArrow=none;startFill=0;endArrow=classic;endFill=1;startSize=16;endSize=8;" edge="1" parent="1" source="-l9Mk85zTir52LxoKMyz-543" target="-l9Mk85zTir52LxoKMyz-540">
          <mxGeometry relative="1" as="geometry">
            <Array as="points">
              <mxPoint x="2767.13" y="942.6899999999998" />
            </Array>
          </mxGeometry>
        </mxCell>
        <mxCell id="-l9Mk85zTir52LxoKMyz-543" value="&lt;font style=&quot;font-size: 25px;&quot;&gt;$$c$$&lt;/font&gt;" style="ellipse;whiteSpace=wrap;html=1;aspect=fixed;strokeColor=#1A1A1A;fontSize=9;fontColor=#1A1A1A;fillColor=#D9D9D9;gradientColor=none;" vertex="1" parent="1">
          <mxGeometry x="3015.4700000000003" y="907.6899999999998" width="70" height="70" as="geometry" />
        </mxCell>
      </root>
    </mxGraphModel>
  </diagram>
</mxfile>
